<?xml version="1.0" encoding="UTF-8" standalone="no"?>
<svg
   xmlns:dc="http://purl.org/dc/elements/1.1/"
   xmlns:cc="http://creativecommons.org/ns#"
   xmlns:rdf="http://www.w3.org/1999/02/22-rdf-syntax-ns#"
   xmlns:svg="http://www.w3.org/2000/svg"
   xmlns="http://www.w3.org/2000/svg"
   height="174.13576"
   width="125.28229"
   xml:space="preserve"
   viewBox="0 0 125.2823 174.13577"
   y="0px"
   x="0px"
   id="_x5F_U_x2B_5716_x5F_U_x2B_5C64_1"
   version="1.1"><metadata
   id="metadata180"><rdf:RDF><cc:Work
       rdf:about=""><dc:format>image/svg+xml</dc:format><dc:type
         rdf:resource="http://purl.org/dc/dcmitype/StillImage" /><dc:title></dc:title></cc:Work></rdf:RDF></metadata><defs
   id="defs178" />
<style
   id="style2"
   type="text/css">
	.st0{fill:none;stroke:#040000;stroke-width:0.75;stroke-linecap:round;stroke-linejoin:round;stroke-miterlimit:10;}
</style>








<g
   style="stroke-width:10;stroke-miterlimit:4;stroke-dasharray:none"
   transform="translate(431.19371,167.81018)"
   id="g4375"><g
     style="stroke-width:10;stroke-miterlimit:4;stroke-dasharray:none"
     id="SPLINE"
     transform="translate(-486.66826,-390.62954)">
	<path
   class="st0"
   d="m 685.3,395.2 c -15.8,-0.2 -32.4,17.7 -31.2,33.4 l -0.5,71.8 c -0.3,10.4 5.5,21.9 14.2,27.7 8.4,6.3 21.1,8 30.8,4.3 L 794,498.6 c 12.9,-3.8 23.5,-19.1 22.5,-32.5 l -0.9,-45.3 c 0,-8.9 -4.4,-18.4 -11.1,-24.3 -6.5,-6.1 -16.4,-9.5 -25.3,-8.7 z"
   id="path4"
   style="fill:none;stroke:#040000;stroke-width:10;stroke-linecap:round;stroke-linejoin:round;stroke-miterlimit:4;stroke-dasharray:none" />
</g><g
     style="stroke-width:10;stroke-miterlimit:4;stroke-dasharray:none"
     id="SPLINE_4_"
     transform="translate(-486.66826,-390.62954)">
	<path
   class="st0"
   d="m 712.8,431.7 c -6.3,-0.1 -13,7.1 -12.5,13.4 l -0.2,28.7 c -0.1,4.2 2.2,8.7 5.7,11.1 3.3,2.5 8.4,3.2 12.3,1.7 l 38.1,-13.5 c 5.1,-1.5 9.4,-7.6 9,-13 L 764.8,442 c 0,-3.6 -1.7,-7.4 -4.4,-9.7 -2.6,-2.4 -6.5,-3.8 -10.1,-3.5 z"
   id="path16"
   style="fill:none;stroke:#040000;stroke-width:10;stroke-linecap:round;stroke-linejoin:round;stroke-miterlimit:4;stroke-dasharray:none" />
</g><g
     style="stroke-width:10;stroke-miterlimit:4;stroke-dasharray:none"
     id="POLYLINE"
     transform="translate(-486.66826,-390.62954)">
	<polyline
   class="st0"
   points="803.9,421.3 803.8,420.4 803.8,419.6 803.5,417.9 803.2,416.2 802.7,414.6 802.1,413 801.4,411.5    800.5,410 799.5,408.6 798.5,407.3 797.3,406 796,404.9 794.7,403.8 793.3,402.9 791.8,402.1 790.2,401.4 788.7,400.8 787,400.3    785.3,400 783.7,399.8 782,399.7 781.1,399.8 780.7,399.8 780.3,399.8 779.8,399.9 779.3,399.9 778.3,400 776.3,400.1 774.4,400.3    772.4,400.4 770.5,400.6 768.5,400.7 766.5,400.9 764.6,401 762.6,401.2 760.7,401.3 758.7,401.5 756.8,401.6 754.8,401.8    752.8,401.9 750.9,402.1 748.9,402.2 747,402.4 745,402.5 743,402.7 741.1,402.8 739.1,403 737.2,403.1 735.2,403.3 733.2,403.4    731.3,403.6 729.3,403.7 727.4,403.9 725.4,404 723.5,404.2 721.5,404.3 719.5,404.5 717.6,404.6 715.6,404.8 713.7,404.9    711.7,405.1 709.7,405.2 707.8,405.4 705.8,405.5 703.9,405.7 701.9,405.8 699.9,406 698,406.1 696,406.3 694.1,406.4 692.1,406.6    690.2,406.7 688.2,406.9 687.2,406.9 686.7,407 686.2,407 685.8,407.1 685.4,407.1 684.5,407.2 682.8,407.6 681.2,408 679.6,408.6    678,409.3 676.5,410.2 675.1,411.1 673.7,412.2 672.5,413.3 671.3,414.6 670.2,416 669.3,417.3 668.4,418.8 667.7,420.4 667.1,422    666.6,423.7 666.3,425.3 666,427 666,427.9 666,428.8 665.9,429.1 665.8,429.4 665.7,429.7 665.5,429.9 665.2,430.1 664.9,430.3    664.6,430.4 664.3,430.4 663.9,430.4 663.6,430.3 663.3,430.1 663.1,429.9 662.9,429.7 662.7,429.4 662.6,429.1 662.6,428.7    662.6,427.7 662.7,426.8 662.9,424.8 663.3,422.8 663.9,420.9 664.6,419.1 665.4,417.3 666.4,415.6 667.5,414 668.7,412.4    670.1,410.9 671.5,409.6 673.1,408.4 674.8,407.3 676.5,406.3 678.3,405.5 680.2,404.8 682.1,404.3 684,403.9 685,403.7    685.5,403.7 686,403.7 686.5,403.6 687,403.6 687.9,403.5 689.9,403.4 691.9,403.2 693.8,403.1 695.8,402.9 697.7,402.8    699.7,402.6 701.7,402.5 703.6,402.3 705.6,402.2 707.5,402 709.5,401.9 711.4,401.7 713.4,401.6 715.4,401.4 717.3,401.3    719.3,401.1 721.2,401 723.2,400.8 725.2,400.7 727.1,400.5 729.1,400.4 731,400.2 733,400.1 734.9,399.9 736.9,399.8 738.9,399.6    740.8,399.5 742.8,399.3 744.7,399.1 746.7,399 748.7,398.8 750.6,398.7 752.6,398.5 754.5,398.4 756.5,398.2 758.5,398.1    760.4,397.9 762.4,397.8 764.3,397.6 766.3,397.5 768.2,397.3 770.2,397.2 772.2,397 774.1,396.9 776.1,396.7 778,396.6 779,396.5    779.5,396.5 780,396.4 780.5,396.4 781,396.4 782,396.4 783.9,396.5 785.9,396.7 787.8,397.1 789.7,397.6 791.5,398.3 793.3,399.1    795,400 796.7,401.1 798.2,402.3 799.7,403.6 801,405 802.2,406.6 803.4,408.2 804.3,409.9 805.2,411.7 805.9,413.5 806.5,415.4    806.9,417.3 807.1,419.2 807.2,420.2 807.2,421.2 807.2,421.5 807.1,421.8 807,422.1 806.8,422.4 806.5,422.6 806.3,422.8    805.9,422.9 805.6,422.9 805.3,422.9 804.9,422.8 804.6,422.6 804.4,422.4 804.2,422.2 804,421.9 803.9,421.6 803.9,421.3  "
   id="polyline28"
   style="fill:none;stroke:#040000;stroke-width:10;stroke-linecap:round;stroke-linejoin:round;stroke-miterlimit:4;stroke-dasharray:none" />
</g></g>
<g
   style="stroke-width:10;stroke-miterlimit:4;stroke-dasharray:none"
   transform="translate(621.8185,105.62918)"
   id="g4442"><g
     style="stroke-width:10;stroke-miterlimit:4;stroke-dasharray:none"
     id="SPLINE_1_"
     transform="translate(-653.21382,-387.30889)">
	<path
   class="st0"
   d="m 676.2,277.4 c -14.2,2.8 -26.6,19.6 -25.1,33.9 l 2,51.2 c 0.2,8.8 4.6,18.1 11.3,23.9 6.5,6 16.2,9.3 25,8.5 l 82,-6.3 c 10,-0.6 20.4,-6.7 25.7,-15.1 5.6,-8.2 7.1,-20.2 3.7,-29.6 L 779.5,282.4 C 775.6,267 753.9,255.4 739,260.8 Z"
   id="path7"
   style="fill:none;stroke:#040000;stroke-width:10;stroke-linecap:round;stroke-linejoin:round;stroke-miterlimit:4;stroke-dasharray:none" />
</g><g
     style="stroke-width:10;stroke-miterlimit:4;stroke-dasharray:none"
     id="SPLINE_5_"
     transform="translate(-653.21382,-387.30889)">
	<path
   class="st0"
   d="m 707.3,312.5 c -5,1 -9.3,6.9 -8.8,11.9 l 0.7,17.9 c 0.1,3.1 1.6,6.3 3.9,8.4 2.3,2.1 5.7,3.2 8.8,3 l 28.7,-2.2 c 3.5,-0.2 7.1,-2.3 9,-5.3 2,-2.9 2.5,-7.1 1.3,-10.4 l -7.5,-21.5 c -1.4,-5.4 -9,-9.5 -14.2,-7.6 z"
   id="path19"
   style="fill:none;stroke:#040000;stroke-width:10;stroke-linecap:round;stroke-linejoin:round;stroke-miterlimit:4;stroke-dasharray:none" />
</g><g
     style="stroke-width:10;stroke-miterlimit:4;stroke-dasharray:none"
     id="POLYLINE_1_"
     transform="translate(-653.21382,-387.30889)">
	<polyline
   class="st0"
   points="768.2,286.3 767.9,285.5 767.6,284.7 766.8,283.1 765.9,281.6 764.9,280.2 763.8,278.9 762.7,277.6    761.4,276.5 760,275.4 758.5,274.5 757,273.7 755.4,273 753.8,272.4 752.1,272 750.4,271.7 748.7,271.5 747,271.5 745.2,271.6    743.5,271.9 742.7,272 742.3,272.1 741.8,272.2 741.4,272.4 740.9,272.5 739.9,272.7 738.1,273.2 736.1,273.7 734.2,274.3    732.3,274.8 730.4,275.3 728.5,275.8 726.6,276.3 724.7,276.8 722.9,277.3 721,277.8 719.1,278.3 717.2,278.8 715.3,279.3    713.4,279.8 711.5,280.3 709.6,280.8 707.7,281.3 705.8,281.8 703.9,282.3 702,282.8 700.1,283.3 698.2,283.8 696.3,284.3    694.4,284.8 692.5,285.3 690.6,285.8 688.7,286.3 686.8,286.8 684.9,287.3 683,287.8 681.1,288.3 680.1,288.6 679.6,288.7    679.2,288.8 678.8,288.9 678.3,289.1 677.5,289.3 675.9,290 674.3,290.7 672.8,291.6 671.4,292.6 670.1,293.8 668.8,295    667.7,296.3 666.6,297.7 665.7,299.2 664.9,300.7 664.2,302.3 663.7,304 663.3,305.7 663,307.4 662.9,309.1 662.8,310 662.9,310.9    662.8,311.2 662.8,311.5 662.6,311.8 662.4,312.1 662.2,312.3 661.9,312.5 661.6,312.6 661.2,312.6 660.9,312.6 660.6,312.5    660.3,312.4 660,312.2 659.8,311.9 659.6,311.6 659.5,311.3 659.5,311 659.5,310 659.5,309 659.6,307 660,305 660.4,303.1    661.1,301.1 661.9,299.3 662.8,297.5 663.8,295.8 665,294.2 666.4,292.7 667.8,291.3 669.3,290 671,288.8 672.7,287.8 674.5,286.9    676.4,286.1 677.3,285.8 677.8,285.7 678.3,285.6 678.8,285.4 679.3,285.3 680.2,285.1 682.1,284.6 684,284 685.9,283.5 687.8,283    689.7,282.5 691.6,282 693.5,281.5 695.4,281 697.3,280.5 699.2,280 701.1,279.5 703,279 704.9,278.5 706.8,278 708.7,277.5    710.6,277 712.5,276.5 714.4,276 716.3,275.5 718.2,275 720.1,274.5 722,274 723.9,273.5 725.8,273 727.7,272.5 729.6,272    731.5,271.5 733.4,271 735.3,270.5 737.2,270 739.1,269.5 740,269.2 740.5,269.1 741,269 741.5,268.9 741.9,268.7 742.9,268.5    744.9,268.3 746.9,268.1 748.9,268.2 750.9,268.4 752.8,268.7 754.8,269.2 756.6,269.8 758.5,270.7 760.2,271.6 761.9,272.7    763.5,273.9 765,275.2 766.4,276.6 767.6,278.2 768.8,279.8 769.8,281.5 770.7,283.3 771,284.2 771.4,285.2 771.5,285.5    771.5,285.8 771.4,286.1 771.3,286.4 771.1,286.7 770.9,287 770.7,287.2 770.3,287.3 770,287.4 769.7,287.4 769.3,287.4 769,287.2    768.8,287.1 768.5,286.8 768.3,286.6 768.2,286.3  "
   id="polyline31"
   style="fill:none;stroke:#040000;stroke-width:10;stroke-linecap:round;stroke-linejoin:round;stroke-miterlimit:4;stroke-dasharray:none" />
</g></g>
<g
   style="stroke-width:10;stroke-miterlimit:4;stroke-dasharray:none"
   transform="translate(459.77436,-167.77762)"
   id="g4256"><g
     style="stroke-width:10;stroke-miterlimit:4;stroke-dasharray:none"
     id="SPLINE_2_"
     transform="translate(-493.84515,-142.44046)">
	<path
   class="st0"
   d="m 652.4,238.1 c -0.8,10.2 4.3,21.7 12.4,27.9 7.8,6.6 20.1,9.3 29.9,6.4 L 755,256.5 c 8.7,-2.2 16.9,-8.6 21,-16.5 l 30.8,-56.7 c 6.1,-10 4.4,-25.8 -3.6,-34.3 -7.2,-9.3 -22.5,-13.4 -33.3,-9 l -93.1,32.6 c -12.2,3.7 -22.5,17.4 -22.6,30.1 z"
   id="path10"
   style="fill:none;stroke:#040000;stroke-width:10;stroke-linecap:round;stroke-linejoin:round;stroke-miterlimit:4;stroke-dasharray:none" />
</g><g
     style="stroke-width:10;stroke-miterlimit:4;stroke-dasharray:none"
     id="SPLINE_6_"
     transform="translate(-493.84515,-142.44046)">
	<path
   class="st0"
   d="m 703.9,216.5 c -0.2,3.3 1.4,6.9 4,9 2.5,2.1 6.4,3 9.6,2.1 l 19.3,-5.1 c 2.8,-0.7 5.4,-2.8 6.7,-5.3 l 9.9,-18.2 c 1.9,-3.2 1.4,-8.3 -1.1,-11 -2.3,-3 -7.2,-4.3 -10.7,-2.9 l -29.8,10.4 c -3.9,1.2 -7.2,5.6 -7.2,9.7 z"
   id="path22"
   style="fill:none;stroke:#040000;stroke-width:10;stroke-linecap:round;stroke-linejoin:round;stroke-miterlimit:4;stroke-dasharray:none" />
</g><g
     style="stroke-width:10;stroke-miterlimit:4;stroke-dasharray:none"
     id="POLYLINE_2_"
     transform="translate(-493.84515,-142.44046)">
	<polyline
   class="st0"
   points="796.4,177.7 796.8,176.9 797.2,176.2 797.7,174.6 798.2,173 798.5,171.4 798.7,169.7 798.7,168.1    798.6,166.5 798.3,164.8 797.8,163.1 797.3,161.6 796.6,160.1 795.7,158.6 794.8,157.3 793.7,156 792.5,154.8 791.2,153.8    789.8,152.8 788.4,152 786.8,151.3 785.3,150.8 783.7,150.4 782,150.2 780.3,150 778.7,150.1 777,150.3 775.4,150.6 774.6,150.8    774.2,151 773.8,151.1 773.3,151.3 772.9,151.4 771.9,151.7 770.1,152.4 768.2,153 766.3,153.7 764.5,154.3 762.6,155 760.8,155.7    758.9,156.3 757,157 755.2,157.6 753.3,158.3 751.5,158.9 749.6,159.6 747.7,160.2 745.9,160.9 744,161.5 742.1,162.2 740.3,162.8    738.4,163.5 736.6,164.1 734.7,164.8 732.8,165.4 731,166.1 729.1,166.7 727.2,167.4 725.4,168 723.5,168.7 721.7,169.3 719.8,170    717.9,170.6 716.1,171.3 714.2,171.9 712.3,172.6 710.5,173.2 708.6,173.9 706.8,174.5 704.9,175.2 703,175.8 701.2,176.5    699.3,177.2 697.4,177.8 695.6,178.5 693.7,179.1 691.9,179.8 690,180.4 688.1,181.1 686.3,181.7 684.4,182.4 682.5,183    681.6,183.3 681.1,183.5 680.7,183.7 680.3,183.8 679.9,184 679.1,184.3 677.5,185.1 676,185.9 674.6,186.9 673.3,188 672,189.2    670.9,190.5 669.9,191.9 668.9,193.4 668.1,194.9 667.4,196.5 666.9,198.2 666.5,199.8 666.2,201.5 666.1,202.4 666,203.3    666,203.6 665.8,203.9 665.7,204.2 665.5,204.4 665.2,204.6 664.9,204.8 664.6,204.8 664.2,204.9 663.9,204.8 663.6,204.7    663.3,204.5 663.1,204.3 662.9,204 662.7,203.7 662.7,203.4 662.6,203.1 662.7,202.1 662.8,201.1 663.2,199.1 663.6,197.2    664.3,195.3 665.1,193.5 666,191.7 667.1,190 668.3,188.4 669.6,186.9 671,185.5 672.6,184.3 674.2,183.1 675.9,182.1 677.7,181.2    678.6,180.8 679.1,180.7 679.6,180.5 680,180.3 680.5,180.2 681.4,179.8 683.3,179.2 685.2,178.5 687,177.9 688.9,177.2    690.7,176.6 692.6,175.9 694.5,175.3 696.3,174.6 698.2,174 700,173.3 701.9,172.7 703.8,172 705.6,171.4 707.5,170.7 709.4,170.1    711.2,169.4 713.1,168.8 714.9,168.1 716.8,167.5 718.7,166.8 720.5,166.1 722.4,165.5 724.3,164.8 726.1,164.2 728,163.5    729.8,162.9 731.7,162.2 733.6,161.6 735.4,160.9 737.3,160.3 739.2,159.6 741,159 742.9,158.3 744.7,157.7 746.6,157 748.5,156.4    750.3,155.7 752.2,155.1 754.1,154.4 755.9,153.8 757.8,153.1 759.6,152.5 761.5,151.8 763.4,151.2 765.2,150.5 767.1,149.9    769,149.2 770.8,148.6 771.8,148.2 772.2,148.1 772.7,147.9 773.2,147.7 773.6,147.6 774.6,147.3 776.5,146.9 778.4,146.7    780.4,146.7 782.4,146.8 784.3,147.1 786.2,147.6 788.1,148.2 789.9,149 791.6,150 793.2,151.1 794.7,152.3 796.1,153.7    797.4,155.2 798.6,156.8 799.5,158.5 800.4,160.3 801.1,162.1 801.6,164 801.9,166.1 802.1,167.9 802,169.9 801.9,171.9    801.5,173.8 801,175.7 800.3,177.5 799.9,178.4 799.4,179.3 799.2,179.6 799,179.8 798.7,180 798.4,180.1 798.1,180.2 797.8,180.2    797.4,180.1 797.1,180 796.8,179.8 796.6,179.5 796.4,179.3 796.3,179 796.2,178.6 796.2,178.3 796.3,178 796.4,177.7  "
   id="polyline34"
   style="fill:none;stroke:#040000;stroke-width:10;stroke-linecap:round;stroke-linejoin:round;stroke-miterlimit:4;stroke-dasharray:none" />
</g></g>
<g
   style="stroke-width:10;stroke-miterlimit:4;stroke-dasharray:none"
   transform="translate(373.61781,-284.08818)"
   id="g4202"><g
     style="stroke-width:10;stroke-miterlimit:4;stroke-dasharray:none"
     id="SPLINE_3_"
     transform="translate(-460.30618,-47.533638)">
	<path
   class="st0"
   d="M 840.5,83.1 C 839.4,71.3 829.7,59.3 818.5,55.7 L 784.6,43.5 c -12.7,-5.4 -31.3,0.3 -38.8,11.9 l -37.8,52 c -7.1,8.8 -7,24.5 0.2,33.2 6.2,9.4 21.3,14 31.7,9.7 l 80.2,-28.1 c 13.2,-3.6 23.7,-20.6 21,-34.1 z"
   id="path13"
   style="fill:none;stroke:#040000;stroke-width:10;stroke-linecap:round;stroke-linejoin:round;stroke-miterlimit:4;stroke-dasharray:none" />
</g><g
     style="stroke-width:10;stroke-miterlimit:4;stroke-dasharray:none"
     id="SPLINE_7_"
     transform="translate(-460.30618,-47.533638)">
	<path
   class="st0"
   d="m 788.7,93.8 c -0.3,-2.9 -2.6,-5.8 -5.4,-6.7 l -8.3,-3 c -3.1,-1.3 -7.7,0.1 -9.5,2.9 l -9.2,12.7 c -1.7,2.1 -1.7,6 0,8.1 1.5,2.3 5.2,3.4 7.8,2.4 l 19.6,-6.9 c 3.2,-0.9 5.8,-5 5.1,-8.3"
   id="path25"
   style="fill:none;stroke:#040000;stroke-width:10;stroke-linecap:round;stroke-linejoin:round;stroke-miterlimit:4;stroke-dasharray:none" />
</g><g
     style="stroke-width:10;stroke-miterlimit:4;stroke-dasharray:none"
     id="POLYLINE_3_"
     transform="translate(-460.30618,-47.533638)">
	<polyline
   class="st0"
   points="815.6,63.7 815.9,63.8 816.2,64 816.4,64.2 816.5,64.5 816.7,64.8 816.7,65.2 816.7,65.5 816.6,65.8    816.5,66.1 816.3,66.4 816,66.6 815.7,66.8 815.4,66.9 815.1,66.9 814.8,66.9 814.5,66.8 813.6,66.5 812.7,66.2 810.9,65.6    809.1,64.9 807.3,64.3 805.5,63.6 803.8,63 802,62.4 800.2,61.7 798.4,61.1 796.6,60.4 794.9,59.8 793.1,59.1 791.3,58.5    789.5,57.9 787.7,57.2 785.9,56.6 784.2,55.9 782.4,55.3 781.5,55 781,54.8 780.6,54.7 780.2,54.5 779.8,54.4 779,54.1 777.4,53.8    775.7,53.5 774.1,53.4 772.4,53.4 770.8,53.5 769.1,53.7 767.5,54.1 765.9,54.6 764.4,55.2 762.9,55.9 761.4,56.8 760.1,57.7    758.8,58.7 757.6,59.9 756.4,61.1 755.9,61.7 755.7,62.1 755.4,62.4 755.1,62.8 754.8,63.2 754.3,64 753.1,65.5 752,67.1    750.8,68.7 749.7,70.3 748.5,71.9 747.4,73.4 746.2,75 745.1,76.6 744,78.2 742.8,79.7 741.7,81.3 740.5,82.9 739.4,84.5 738.2,86    737.1,87.6 735.9,89.2 734.8,90.8 733.6,92.4 732.5,93.9 731.4,95.5 730.2,97.1 729.1,98.7 727.9,100.2 726.8,101.8 725.6,103.4    724.5,105 723.3,106.5 722.2,108.1 721.1,109.7 719.9,111.3 718.8,112.8 718.2,113.6 717.6,114.4 717.4,114.7 717.1,114.9    716.8,115 716.5,115.1 716.2,115.1 715.9,115.1 715.6,115 715.3,114.8 715,114.6 714.8,114.3 714.7,114 714.6,113.7 714.6,113.3    714.6,113 714.7,112.7 714.9,112.4 715.5,111.6 716,110.9 717.2,109.3 718.3,107.7 719.5,106.1 720.6,104.6 721.8,103 722.9,101.4    724,99.8 725.2,98.2 726.3,96.7 727.5,95.1 728.6,93.5 729.8,91.9 730.9,90.4 732.1,88.8 733.2,87.2 734.4,85.6 735.5,84.1    736.6,82.5 737.8,80.9 738.9,79.3 740.1,77.8 741.2,76.2 742.4,74.6 743.5,73 744.7,71.5 745.8,69.9 746.9,68.3 748.1,66.7    749.2,65.1 750.4,63.5 751.5,62 752.1,61.2 752.4,60.8 752.7,60.4 753,60 753.3,59.7 753.9,58.9 755.2,57.5 756.6,56.2 758,55    759.6,53.9 761.3,52.9 763,52.1 764.8,51.4 766.6,50.8 768.5,50.4 770.4,50.1 772.3,50 774.2,50 776.1,50.2 778,50.5 779.9,50.9    780.8,51.2 781.3,51.3 781.7,51.5 782.2,51.6 782.6,51.8 783.5,52.1 785.3,52.8 787.1,53.4 788.9,54 790.6,54.7 792.4,55.3    794.2,56 796,56.6 797.8,57.2 799.6,57.9 801.3,58.5 803.1,59.2 804.9,59.8 806.7,60.5 808.5,61.1 810.3,61.7 812,62.4 813.8,63    814.7,63.3 815.6,63.7  "
   id="polyline37"
   style="fill:none;stroke:#040000;stroke-width:10;stroke-linecap:round;stroke-linejoin:round;stroke-miterlimit:4;stroke-dasharray:none" />
</g></g>








<g
   style="stroke-width:10;stroke-miterlimit:4;stroke-dasharray:none"
   transform="translate(552.31917,29.123496)"
   id="g4348"><g
     style="stroke-width:10;stroke-miterlimit:4;stroke-dasharray:none"
     id="SPLINE_8_"
     transform="translate(-650.60125,-259.07747)">
	<path
   class="st0"
   d="m 525.9,391.1 c -8.7,-0.7 -18.2,2.5 -24.6,8.4 -6.6,5.7 -11,14.7 -11.4,23.4 l -2.7,46.6 c -1.6,13.8 9.3,30.1 22.7,33.9 l 94.4,32.5 c 9.7,3.6 22.2,1.8 30.5,-4.4 8.6,-5.8 14.4,-17 14.2,-27.3 l 0.5,-72.8 c 1.6,-16 -15.4,-34.3 -31.5,-33.9 z"
   id="path40"
   style="fill:none;stroke:#040000;stroke-width:10;stroke-linecap:round;stroke-linejoin:round;stroke-miterlimit:4;stroke-dasharray:none" />
</g><g
     style="stroke-width:10;stroke-miterlimit:4;stroke-dasharray:none"
     id="SPLINE_12_"
     transform="translate(-650.60125,-259.07747)">
	<path
   class="st0"
   d="m 553.9,432 c -3.5,-0.3 -7.3,1 -9.9,3.3 -2.6,2.3 -4.4,5.9 -4.6,9.4 l -1.1,18.7 c -0.6,5.5 3.7,12.1 9.1,13.5 l 37.7,13 c 3.9,1.4 8.9,0.7 12.2,-1.8 3.4,-2.3 5.8,-6.8 5.7,-10.9 l 0.2,-29.1 c 0.6,-6.4 -6.2,-13.7 -12.6,-13.6 z"
   id="path52"
   style="fill:none;stroke:#040000;stroke-width:10;stroke-linecap:round;stroke-linejoin:round;stroke-miterlimit:4;stroke-dasharray:none" />
</g><g
     style="stroke-width:10;stroke-miterlimit:4;stroke-dasharray:none"
     id="POLYLINE_4_"
     transform="translate(-650.60125,-259.07747)">
	<polyline
   class="st0"
   points="637.7,431.2 637.7,430.4 637.7,429.5 637.5,427.8 637.1,426 636.7,424.4 636.1,422.7 635.3,421.2    634.5,419.6 633.5,418.2 632.4,416.8 631.3,415.5 629.9,414.3 628.6,413.3 627.1,412.3 625.6,411.5 624,410.8 622.4,410.2    620.7,409.7 619,409.4 618.1,409.3 617.7,409.2 617.3,409.2 616.8,409.2 616.3,409.1 615.3,409.1 613.3,408.9 611.4,408.8    609.4,408.7 607.5,408.5 605.5,408.4 603.5,408.3 601.6,408.1 599.6,408 597.7,407.9 595.7,407.7 593.7,407.6 591.8,407.5    589.8,407.3 587.9,407.2 585.9,407.1 583.9,406.9 582,406.8 580,406.7 578,406.5 576.1,406.4 574.1,406.2 572.2,406.1 570.2,406    568.2,405.8 566.3,405.7 564.3,405.6 562.4,405.4 560.4,405.3 558.4,405.2 556.5,405 554.5,404.9 552.6,404.8 550.6,404.6    548.6,404.5 546.7,404.4 544.7,404.2 542.7,404.1 540.8,404 538.8,403.8 536.9,403.7 534.9,403.6 532.9,403.4 531,403.3 529,403.2    527.1,403 526.1,403 525.6,402.9 525.1,402.9 524.7,402.9 524.2,402.9 523.4,402.9 521.6,402.9 519.9,403.2 518.2,403.5 516.6,404    514.9,404.6 513.4,405.4 511.9,406.3 510.4,407.2 509.1,408.3 507.8,409.5 506.7,410.8 505.6,412.2 504.7,413.7 503.9,415.2    503.2,416.8 502.6,418.4 502.2,420.1 501.9,421.8 501.8,422.7 501.7,423.5 501.6,423.9 501.5,424.2 501.4,424.4 501.1,424.7    500.9,424.9 500.6,425 500.3,425.1 499.9,425.1 499.6,425.1 499.3,424.9 499,424.8 498.7,424.5 498.5,424.3 498.4,424 498.3,423.7    498.3,423.3 498.4,422.3 498.5,421.4 498.9,419.4 499.4,417.4 500,415.6 500.8,413.7 501.8,412 502.9,410.3 504.1,408.7    505.4,407.2 506.9,405.8 508.4,404.5 510.1,403.4 511.8,402.4 513.6,401.5 515.5,400.8 517.4,400.3 519.3,399.8 521.3,399.6    523.3,399.5 524.3,399.5 524.8,399.5 525.3,399.5 525.8,399.6 526.3,399.6 527.3,399.7 529.3,399.8 531.2,399.9 533.2,400.1    535.1,400.2 537.1,400.3 539.1,400.5 541,400.6 543,400.7 544.9,400.9 546.9,401 548.9,401.1 550.8,401.3 552.8,401.4 554.7,401.5    556.7,401.7 558.7,401.8 560.6,401.9 562.6,402.1 564.5,402.2 566.5,402.3 568.5,402.5 570.4,402.6 572.4,402.7 574.4,402.9    576.3,403 578.3,403.1 580.2,403.3 582.2,403.4 584.2,403.5 586.1,403.7 588.1,403.8 590,404 592,404.1 594,404.2 595.9,404.4    597.9,404.5 599.8,404.6 601.8,404.8 603.8,404.9 605.7,405 607.7,405.2 609.7,405.3 611.6,405.4 613.6,405.6 615.5,405.7    616.5,405.8 617,405.8 617.5,405.8 618,405.9 618.5,405.9 619.5,406 621.5,406.4 623.4,406.9 625.3,407.6 627.1,408.5 628.9,409.4    630.6,410.5 632.1,411.7 633.6,413.1 635,414.6 636.3,416.2 637.4,417.9 638.3,419.6 639.2,421.4 639.9,423.3 640.4,425.3    640.8,427.2 641,429.2 641.1,430.3 641.1,431.3 641.1,431.6 641,431.9 640.8,432.2 640.6,432.4 640.4,432.6 640.1,432.8    639.7,432.9 639.4,432.9 639.1,432.9 638.7,432.8 638.4,432.6 638.2,432.4 638,432.2 637.8,431.9 637.7,431.6 637.7,431.2  "
   id="polyline64"
   style="fill:none;stroke:#040000;stroke-width:10;stroke-linecap:round;stroke-linejoin:round;stroke-miterlimit:4;stroke-dasharray:none" />
</g></g>
<g
   style="stroke-width:10;stroke-miterlimit:4;stroke-dasharray:none"
   transform="translate(602.29619,-239.71684)"
   id="g4302"><g
     style="stroke-width:10;stroke-miterlimit:4;stroke-dasharray:none"
     id="SPLINE_9_"
     transform="translate(-702.36191,-41.07104)">
	<path
   class="st0"
   d="m 565.5,263.8 c -15.3,-6.2 -38.5,6.1 -41.8,22.4 L 504.5,348 c -3.1,9.4 -1.3,21.1 4.4,29.1 5.4,8.2 15.7,14.1 25.6,14.6 L 612,397 c 9.2,0.8 19.4,-3 25.9,-9.6 6.7,-6.4 10.7,-16.5 10.1,-25.7 l -2.4,-50.5 c 0.1,-13.3 -11.2,-27.7 -24.1,-30.8 z"
   id="path43"
   style="fill:none;stroke:#040000;stroke-width:10;stroke-linecap:round;stroke-linejoin:round;stroke-miterlimit:4;stroke-dasharray:none" />
</g><g
     style="stroke-width:10;stroke-miterlimit:4;stroke-dasharray:none"
     id="SPLINE_13_"
     transform="translate(-702.36191,-41.07104)">
	<path
   class="st0"
   d="m 573.5,310.6 c -5.2,-2.1 -13,2.1 -14.1,7.5 l -6.5,20.9 c -1,3.2 -0.5,7.1 1.5,9.8 1.8,2.8 5.3,4.8 8.6,4.9 l 26.1,1.8 c 3.1,0.3 6.6,-1 8.7,-3.2 2.3,-2.1 3.6,-5.6 3.4,-8.7 l -0.8,-17.1 c 0,-4.5 -3.8,-9.3 -8.1,-10.4 z"
   id="path55"
   style="fill:none;stroke:#040000;stroke-width:10;stroke-linecap:round;stroke-linejoin:round;stroke-miterlimit:4;stroke-dasharray:none" />
</g><g
     style="stroke-width:10;stroke-miterlimit:4;stroke-dasharray:none"
     id="POLYLINE_5_"
     transform="translate(-702.36191,-41.07104)">
	<polyline
   class="st0"
   points="633.8,311.7 633.7,310.9 633.7,310 633.4,308.4 633,306.7 632.5,305.1 631.8,303.5 631,302    630.1,300.6 629.2,299.2 628.1,297.9 626.9,296.7 625.6,295.6 624.2,294.6 622.8,293.7 621.3,292.9 619.7,292.3 618.9,292    618.5,291.8 618.1,291.7 617.6,291.6 617.2,291.4 616.2,291.2 614.4,290.6 612.5,290.1 610.7,289.5 608.8,289 606.9,288.4    605.1,287.9 603.2,287.3 601.3,286.7 599.5,286.2 597.6,285.6 595.7,285.1 593.9,284.5 592,284 590.1,283.4 588.3,282.9    586.4,282.3 584.5,281.8 582.7,281.2 580.8,280.7 579,280.1 577.1,279.6 575.2,279 573.4,278.5 571.5,277.9 569.6,277.4    567.8,276.8 565.9,276.3 564,275.7 563.1,275.4 562.6,275.3 562.2,275.2 561.8,275 561.4,274.9 560.5,274.7 558.8,274.5    557.1,274.3 555.4,274.3 553.7,274.4 552,274.6 550.4,275 548.7,275.5 547.1,276.1 545.6,276.9 544.1,277.7 542.7,278.7    541.4,279.8 540.2,281 539,282.2 538,283.6 537.1,285 536.3,286.5 535.6,288.1 535.3,288.9 535,289.7 534.9,290 534.7,290.3    534.5,290.5 534.2,290.7 533.9,290.8 533.6,290.9 533.2,290.9 532.9,290.8 532.6,290.7 532.3,290.5 532.1,290.2 531.9,290    531.8,289.7 531.7,289.3 531.7,289 531.8,288.7 532.1,287.8 532.4,286.8 533.2,285 534.2,283.3 535.2,281.6 536.4,280.1    537.7,278.6 539.2,277.3 540.7,276 542.3,274.9 544,273.9 545.8,273 547.6,272.3 549.5,271.7 551.4,271.3 553.4,271 555.3,270.9    557.3,270.9 559.3,271.1 561.2,271.4 562.2,271.7 562.7,271.8 563.1,271.9 563.6,272.1 564.1,272.2 565,272.5 566.9,273    568.7,273.6 570.6,274.1 572.5,274.7 574.3,275.2 576.2,275.8 578.1,276.3 579.9,276.9 581.8,277.4 583.6,278 585.5,278.5    587.4,279.1 589.2,279.6 591.1,280.2 593,280.8 594.8,281.3 596.7,281.9 598.6,282.4 600.4,283 602.3,283.5 604.2,284.1 606,284.6    607.9,285.2 609.7,285.7 611.6,286.3 613.5,286.8 615.3,287.4 617.2,287.9 618.1,288.2 618.6,288.3 619.1,288.5 619.5,288.6    620,288.8 620.9,289.1 622.7,289.9 624.5,290.8 626.1,291.8 627.7,293 629.2,294.3 630.5,295.6 631.8,297.1 633,298.7 634,300.4    634.9,302.1 635.6,303.9 636.2,305.8 636.7,307.7 637,309.6 637.1,310.6 637.2,311.6 637.2,311.9 637.1,312.2 636.9,312.5    636.7,312.8 636.5,313 636.2,313.2 635.9,313.3 635.6,313.3 635.2,313.3 634.9,313.2 634.6,313.1 634.3,312.9 634.1,312.6    634,312.4 633.8,312.1 633.8,311.7  "
   id="polyline67"
   style="fill:none;stroke:#040000;stroke-width:10;stroke-linecap:round;stroke-linejoin:round;stroke-miterlimit:4;stroke-dasharray:none" />
</g></g>
<g
   style="stroke-width:10;stroke-miterlimit:4;stroke-dasharray:none"
   transform="translate(605.86349,-270.03884)"
   id="g4229"><g
     style="stroke-width:10;stroke-miterlimit:4;stroke-dasharray:none"
     id="SPLINE_10_"
     transform="translate(-702.36191,-41.071035)">
	<path
   class="st0"
   d="m 650.3,210 c 1.9,-14 -9.3,-31 -23,-34.6 l -93.3,-31 c -10.7,-4.1 -25.7,0.1 -32.7,9.2 -7.8,8.4 -9.4,23.9 -3.5,33.8 L 527,242 c 4,7.7 11.8,14.1 20.2,16.5 l 57.3,16.9 c 9.3,2.9 20.8,1.1 28.8,-4.6 8.1,-5.4 14,-15.5 14.5,-25.2 z"
   id="path46"
   style="fill:none;stroke:#040000;stroke-width:10;stroke-linecap:round;stroke-linejoin:round;stroke-miterlimit:4;stroke-dasharray:none" />
</g><g
     style="stroke-width:10;stroke-miterlimit:4;stroke-dasharray:none"
     id="SPLINE_14_"
     transform="translate(-702.36191,-41.071035)">
	<path
   class="st0"
   d="m 599.1,209.6 c 0.6,-4.4 -2.9,-9.8 -7.3,-10.9 l -29.5,-9.8 c -3.4,-1.3 -8.1,0 -10.3,2.9 -2.5,2.7 -3,7.6 -1.1,10.7 l 9.2,17.2 c 1.3,2.4 3.7,4.5 6.4,5.2 l 18.1,5.4 c 2.9,0.9 6.6,0.3 9.1,-1.4 2.6,-1.7 4.4,-4.9 4.6,-8 z"
   id="path58"
   style="fill:none;stroke:#040000;stroke-width:10;stroke-linecap:round;stroke-linejoin:round;stroke-miterlimit:4;stroke-dasharray:none" />
</g><g
     style="stroke-width:10;stroke-miterlimit:4;stroke-dasharray:none"
     id="POLYLINE_6_"
     transform="translate(-702.36191,-41.071035)">
	<polyline
   class="st0"
   points="638.5,209.1 638.6,208.2 638.6,207.4 638.5,205.7 638.3,204 638,202.3 637.5,200.6 636.9,199    636.2,197.5 635.4,196 634.4,194.6 633.4,193.2 632.2,192 631,190.8 629.6,189.7 628.2,188.8 626.7,187.9 625.2,187.2 624.4,186.9    624,186.7 623.6,186.6 623.1,186.4 622.6,186.3 621.7,186 619.8,185.4 618,184.7 616.1,184.1 614.2,183.5 612.4,182.9 610.5,182.3    608.6,181.6 606.8,181 604.9,180.4 603,179.8 601.2,179.2 599.3,178.5 597.5,177.9 595.6,177.3 593.7,176.7 591.9,176.1 590,175.4    588.1,174.8 586.3,174.2 584.4,173.6 582.5,172.9 580.7,172.3 578.8,171.7 576.9,171.1 575.1,170.5 573.2,169.8 571.3,169.2    569.5,168.6 567.6,168 565.7,167.4 563.9,166.7 562,166.1 560.1,165.5 558.3,164.9 556.4,164.3 554.5,163.6 552.7,163 550.8,162.4    548.9,161.8 547.1,161.2 545.2,160.5 543.3,159.9 541.5,159.3 539.6,158.7 537.7,158 535.9,157.4 534,156.8 532.1,156.2    531.2,155.9 530.7,155.7 530.3,155.6 529.9,155.4 529.5,155.3 528.7,155.1 527,154.8 525.3,154.6 523.6,154.6 521.9,154.8    520.3,155.1 518.6,155.6 517,156.2 515.5,156.9 514.1,157.8 512.7,158.8 511.5,159.9 510.3,161.2 509.3,162.5 508.4,164    507.6,165.5 507,167 506.5,168.7 506.2,170.3 506,172 506,173.7 506.1,175.4 506.4,177.1 506.8,178.7 507.4,180.3 507.8,181    508.2,181.8 508.3,182.1 508.4,182.4 508.4,182.7 508.3,183.1 508.2,183.4 508,183.7 507.8,183.9 507.5,184.1 507.1,184.2    506.8,184.3 506.5,184.3 506.2,184.2 505.9,184.1 505.6,183.9 505.4,183.7 505.2,183.4 504.7,182.5 504.3,181.6 503.6,179.7    503.1,177.8 502.8,175.8 502.6,173.8 502.6,171.8 502.8,169.8 503.2,167.9 503.8,165.9 504.5,164.1 505.5,162.3 506.5,160.6    507.7,159 509.1,157.5 510.6,156.2 512.2,155 513.9,154 515.7,153.1 517.6,152.4 519.5,151.8 521.5,151.5 523.4,151.3 525.5,151.3    527.4,151.5 529.4,151.8 530.4,152.1 530.9,152.2 531.3,152.4 531.8,152.5 532.3,152.7 533.2,153 535.1,153.6 536.9,154.2    538.8,154.8 540.7,155.5 542.5,156.1 544.4,156.7 546.3,157.3 548.1,157.9 550,158.6 551.9,159.2 553.7,159.8 555.6,160.4    557.5,161.1 559.3,161.7 561.2,162.3 563.1,162.9 564.9,163.5 566.8,164.2 568.7,164.8 570.5,165.4 572.4,166 574.3,166.6    576.1,167.3 578,167.9 579.9,168.5 581.7,169.1 583.6,169.7 585.5,170.4 587.3,171 589.2,171.6 591.1,172.2 592.9,172.8    594.8,173.5 596.7,174.1 598.5,174.7 600.4,175.3 602.2,176 604.1,176.6 606,177.2 607.8,177.8 609.7,178.4 611.6,179.1    613.4,179.7 615.3,180.3 617.2,180.9 619,181.5 620.9,182.2 622.8,182.8 623.7,183.1 624.2,183.2 624.6,183.4 625.1,183.6    625.6,183.7 626.5,184.1 628.3,184.9 630,185.9 631.6,187 633.2,188.2 634.6,189.6 636,191 637.2,192.6 638.3,194.2 639.2,196    640,197.7 640.7,199.6 641.3,201.5 641.7,203.4 641.9,205.4 642,207.4 642,208.3 641.9,209.3 641.8,209.7 641.7,210 641.6,210.2    641.3,210.5 641.1,210.7 640.8,210.8 640.4,210.9 640.1,210.9 639.7,210.8 639.4,210.7 639.2,210.5 638.9,210.3 638.7,210    638.6,209.7 638.5,209.4 638.5,209.1  "
   id="polyline70"
   style="fill:none;stroke:#040000;stroke-width:10;stroke-linecap:round;stroke-linejoin:round;stroke-miterlimit:4;stroke-dasharray:none" />
</g></g>
<g
   style="stroke-width:10;stroke-miterlimit:4;stroke-dasharray:none"
   transform="translate(604.87385,43.201516)"
   id="g4434"><g
     style="stroke-width:10;stroke-miterlimit:4;stroke-dasharray:none"
     id="SPLINE_11_"
     transform="translate(-653.21382,-387.30889)">
	<path
   class="st0"
   d="M 555.2,60.8 C 547.6,50.2 530.5,45 518.3,49.6 l -34.2,11.1 c -13.5,3.5 -24.7,19.7 -23.3,33.6 l 0.1,2.9 c -0.1,13 10.6,27.1 23.1,30.6 l 82.8,27.6 c 10.2,4 24.8,-0.8 30.6,-10.1 6.8,-8.6 6.3,-24 -0.9,-32.2 z"
   id="path49"
   style="fill:none;stroke:#040000;stroke-width:10;stroke-linecap:round;stroke-linejoin:round;stroke-miterlimit:4;stroke-dasharray:none" />
</g><g
     style="stroke-width:10;stroke-miterlimit:4;stroke-dasharray:none"
     id="SPLINE_15_"
     transform="translate(-653.21382,-387.30889)">
	<path
   class="st0"
   d="m 537.1,92.4 c -1.9,-2.6 -6,-3.9 -9,-2.7 l -8.3,2.7 c -3.3,0.9 -6,4.8 -5.7,8.2 0,3.9 2.6,7.3 5.7,8.2 l 20.2,6.7 c 2.5,1 6,-0.2 7.5,-2.5 1.7,-2.1 1.5,-5.8 -0.2,-7.8 z"
   id="path61"
   style="fill:none;stroke:#040000;stroke-width:10;stroke-linecap:round;stroke-linejoin:round;stroke-miterlimit:4;stroke-dasharray:none" />
</g><g
     style="stroke-width:10;stroke-miterlimit:4;stroke-dasharray:none"
     id="POLYLINE_7_"
     transform="translate(-653.21382,-387.30889)">
	<polyline
   class="st0"
   points="587.2,120.3 586.6,119.6 586,118.8 584.7,117.2 583.5,115.7 582.3,114.2 581.1,112.6 579.9,111.1    578.7,109.6 577.5,108 576.3,106.5 575,105 573.8,103.4 572.6,101.9 571.4,100.3 570.2,98.8 569,97.3 567.8,95.7 566.6,94.2    565.3,92.7 564.1,91.1 562.9,89.6 561.7,88.1 560.5,86.5 559.3,85 558.1,83.4 556.8,81.9 555.6,80.4 554.4,78.8 553.2,77.3    552,75.8 550.8,74.2 549.6,72.7 548.3,71.1 547.1,69.6 546.5,68.8 546.2,68.5 545.9,68.1 545.7,67.8 545.4,67.4 544.8,66.8    543.7,65.6 542.4,64.5 541.1,63.5 539.6,62.7 538.2,61.9 536.6,61.2 535.1,60.7 533.4,60.3 531.8,60 530.1,59.8 528.5,59.7    526.8,59.8 525.1,60 523.5,60.4 522.7,60.6 522.3,60.7 521.9,60.8 521.5,61 521,61.1 520.1,61.4 518.3,62 516.5,62.6 514.7,63.2    512.9,63.7 511.1,64.3 509.3,64.9 507.5,65.5 505.7,66.1 503.9,66.7 502.1,67.2 500.3,67.8 498.5,68.4 496.7,69 494.9,69.6    493.1,70.2 491.3,70.8 489.5,71.3 488.6,71.6 487.7,71.9 487.4,72 487.1,72 486.7,72 486.4,71.8 486.2,71.7 485.9,71.4 485.7,71.2    485.6,70.9 485.5,70.5 485.5,70.2 485.6,69.9 485.7,69.5 485.9,69.3 486.1,69 486.4,68.9 486.7,68.7 487.6,68.4 488.5,68.1    490.3,67.6 492.1,67 493.9,66.4 495.7,65.8 497.5,65.2 499.3,64.6 501.1,64 502.9,63.5 504.7,62.9 506.5,62.3 508.3,61.7    510.1,61.1 511.9,60.5 513.7,59.9 515.5,59.4 517.3,58.8 519.1,58.2 520,57.9 520.4,57.7 520.9,57.6 521.3,57.5 521.8,57.3    522.7,57.1 524.6,56.7 526.5,56.4 528.4,56.4 530.4,56.4 532.3,56.6 534.2,57 536,57.4 537.9,58.1 539.6,58.8 541.3,59.7 543,60.8    544.5,61.9 546,63.2 547.3,64.5 548,65.2 548.3,65.6 548.6,66 548.9,66.4 549.2,66.8 549.8,67.5 551,69.1 552.2,70.6 553.4,72.1    554.6,73.7 555.9,75.2 557.1,76.7 558.3,78.3 559.5,79.8 560.7,81.4 561.9,82.9 563.1,84.4 564.3,86 565.6,87.5 566.8,89 568,90.6    569.2,92.1 570.4,93.6 571.6,95.2 572.8,96.7 574.1,98.3 575.3,99.8 576.5,101.3 577.7,102.9 578.9,104.4 580.1,105.9 581.3,107.5    582.6,109 583.8,110.5 585,112.1 586.2,113.6 587.4,115.1 588.6,116.7 589.2,117.5 589.8,118.2 590,118.5 590.1,118.8 590.2,119.1    590.2,119.5 590.1,119.8 590,120.1 589.8,120.4 589.6,120.6 589.3,120.8 589,120.9 588.6,121 588.3,121 588,120.9 587.7,120.7    587.4,120.6 587.2,120.3  "
   id="polyline73"
   style="fill:none;stroke:#040000;stroke-width:10;stroke-linecap:round;stroke-linejoin:round;stroke-miterlimit:4;stroke-dasharray:none" />
</g></g>




<g
   style="stroke-width:10;stroke-miterlimit:4;stroke-dasharray:none"
   transform="translate(-21.383798,-305.99597)"
   id="g3937"><g
     style="stroke-width:10;stroke-miterlimit:4;stroke-dasharray:none"
     id="SPLINE_16_"
     transform="translate(-19.82157,-28.301317)">
	<path
   class="st0"
   d="m 247.9,83.8 c -5.1,4.5 -3.3,11.3 4,14.8 6.6,3.9 20.3,5.4 30,3.4 L 329,93.4 c 10.3,-1.7 19.4,-6.7 21.8,-11.8 l 7.1,-13.9 c 2.6,-4.6 0.1,-10.1 -6,-13.7 -5.8,-3.7 -16.4,-6 -26.2,-5.7 L 304,48.7 c -12,0 -25.2,4.2 -30.1,9.5 z"
   id="path76"
   style="fill:none;stroke:#040000;stroke-width:10;stroke-linecap:round;stroke-linejoin:round;stroke-miterlimit:4;stroke-dasharray:none" />
</g><g
     style="stroke-width:10;stroke-miterlimit:4;stroke-dasharray:none"
     id="SPLINE_18_"
     transform="translate(-19.82157,-28.301317)">
	<path
   class="st0"
   d="m 290.6,77.1 c -1.2,1 -0.7,2.6 0.9,3.4 1.5,0.9 4.6,1.2 6.8,0.8 l 10.7,-2 c 2.3,-0.4 4.4,-1.5 5,-2.7 l 1.6,-3.2 c 0.6,-1 0,-2.3 -1.4,-3.1 -1.3,-0.8 -3.7,-1.4 -6,-1.3 l -4.9,0.1 c -2.7,0 -5.7,1 -6.9,2.2 z"
   id="path82"
   style="fill:none;stroke:#040000;stroke-width:10;stroke-linecap:round;stroke-linejoin:round;stroke-miterlimit:4;stroke-dasharray:none" />
</g><g
     style="stroke-width:10;stroke-miterlimit:4;stroke-dasharray:none"
     id="POLYLINE_8_"
     transform="translate(-19.82157,-28.301317)">
	<polyline
   class="st0"
   points="303.9,52.7 304.3,52.7 304.6,52.8 304.9,52.9 305.1,53 305.3,53.1 305.5,53.2 305.6,53.4 305.6,53.5    305.6,53.7 305.5,53.8 305.4,54 305.1,54.1 304.9,54.2 304.6,54.3 304.3,54.3 303.9,54.4 303.1,54.4 302.3,54.4 300.7,54.5    299.1,54.7 297.6,54.9 296,55.2 294.6,55.6 293.1,55.9 291.7,56.4 290.4,56.9 289.2,57.4 288,58 287,58.6 286,59.2 285.1,59.9    284.7,60.2 284.5,60.4 284.4,60.6 284.1,60.8 283.9,61 283.5,61.4 282.6,62.3 281.8,63.1 280.9,64 280,64.8 279.2,65.7 278.3,66.5    277.4,67.4 276.6,68.2 275.7,69.1 274.9,69.9 274,70.8 273.1,71.6 272.3,72.5 271.4,73.4 270.5,74.2 269.7,75.1 268.8,75.9    267.9,76.8 267.1,77.6 266.2,78.5 265.4,79.3 264.5,80.2 263.6,81 262.8,81.9 261.9,82.7 261,83.6 260.2,84.4 259.3,85.3    258.9,85.7 258.7,85.9 258.5,86.1 258.3,86.3 258.1,86.5 257.8,86.8 257.3,87.6 257,88.3 256.8,89.1 256.8,89.9 256.9,90.6    257.2,91.4 257.6,92.1 258.2,92.8 258.9,93.5 259.8,94.1 260.7,94.7 261.8,95.2 263.1,95.7 264.4,96.1 265.7,96.4 267.2,96.7    268.7,96.9 270.3,97.1 271.8,97.1 273.4,97.1 274.9,97 276.5,96.9 277.3,96.7 278.1,96.6 278.4,96.6 278.7,96.6 279,96.6    279.4,96.6 279.6,96.7 279.9,96.8 280.1,96.9 280.2,97.1 280.3,97.2 280.3,97.4 280.2,97.6 280.1,97.7 280,97.9 279.7,98    279.5,98.1 279.2,98.1 278.2,98.3 277.3,98.4 275.4,98.6 273.5,98.7 271.6,98.8 269.7,98.7 267.8,98.5 266,98.3 264.3,97.9    262.6,97.5 261,97 259.5,96.4 258.2,95.8 257,95.1 256,94.3 255.1,93.5 254.4,92.7 253.9,91.8 253.5,90.9 253.4,90 253.4,89    253.7,88.1 254.1,87.2 254.7,86.3 255,85.9 255.2,85.7 255.4,85.5 255.6,85.2 255.9,85 256.3,84.6 257.2,83.7 258,82.9 258.9,82    259.7,81.2 260.6,80.3 261.5,79.5 262.3,78.6 263.2,77.8 264.1,76.9 264.9,76.1 265.8,75.2 266.7,74.4 267.5,73.5 268.4,72.7    269.2,71.8 270.1,71 271,70.1 271.8,69.3 272.7,68.4 273.6,67.6 274.4,66.7 275.3,65.9 276.2,65 277,64.2 277.9,63.3 278.7,62.5    279.6,61.6 280.5,60.8 280.9,60.3 281.1,60.1 281.3,59.9 281.5,59.7 281.8,59.5 282.2,59.1 283.2,58.3 284.4,57.6 285.6,56.9    286.9,56.2 288.4,55.6 289.9,55.1 291.5,54.6 293.1,54.1 294.8,53.7 296.6,53.4 298.4,53.1 300.2,52.9 302.1,52.8 303,52.8    303.9,52.7  "
   id="polyline88"
   style="fill:none;stroke:#040000;stroke-width:10;stroke-linecap:round;stroke-linejoin:round;stroke-miterlimit:4;stroke-dasharray:none" />
</g></g>
<g
   style="stroke-width:10;stroke-miterlimit:4;stroke-dasharray:none"
   transform="translate(-166.06064,-341.43188)"
   id="g3891"><g
     style="stroke-width:10;stroke-miterlimit:4;stroke-dasharray:none"
     id="SPLINE_17_">
	<path
   style="fill:none;stroke:#040000;stroke-width:10;stroke-linecap:round;stroke-linejoin:round;stroke-miterlimit:4;stroke-dasharray:none"
   class="st0"
   d="M 39.9,49.2 C 30.9,49 20.8,51.4 15.2,55 9.4,58.5 7.1,63.8 9.6,67.9 l 9,15.9 C 21,88.5 29,92.7 38.2,94.3 l 46.4,8.6 c 8.9,1.9 21.9,0.3 28.3,-3.4 7.1,-3.4 9.2,-9.8 4.5,-13.9 L 89.6,58 c -4.7,-5.1 -17.3,-8.9 -29,-8.8 z"
   id="path79" />
</g><g
     style="stroke-width:10;stroke-miterlimit:4;stroke-dasharray:none"
     id="SPLINE_19_">
	<path
   style="fill:none;stroke:#040000;stroke-width:10;stroke-linecap:round;stroke-linejoin:round;stroke-miterlimit:4;stroke-dasharray:none"
   class="st0"
   d="m 57.9,70 c -2,0 -4.3,0.5 -5.5,1.3 -1.3,0.8 -1.8,1.9 -1.2,2.9 l 2,3.5 c 0.5,1 2.3,2 4.4,2.3 l 10.2,2 c 2,0.4 4.9,0.1 6.3,-0.7 1.6,-0.8 2,-2.2 1,-3.1 L 68.9,72 c -1,-1.1 -3.8,-2 -6.4,-2 z"
   id="path85" />
</g><g
     style="stroke-width:10;stroke-miterlimit:4;stroke-dasharray:none"
     id="POLYLINE_9_">
	<polyline
   style="fill:none;stroke:#040000;stroke-width:10;stroke-linecap:round;stroke-linejoin:round;stroke-miterlimit:4;stroke-dasharray:none"
   class="st0"
   points="87.9,99.1 87.6,99 87.3,98.9 87.1,98.8 87,98.7 86.9,98.5 86.8,98.4 86.9,98.2 87,98 87.1,97.9    87.3,97.8 87.6,97.7 87.9,97.6 88.2,97.5 88.5,97.5 88.9,97.5 89.2,97.6 89.9,97.7 90.7,97.8 92.2,97.9 93.8,98 95.3,98 96.9,97.8    98.4,97.6 99.9,97.4 101.3,97 102.6,96.5 103.8,96 104.9,95.5 105.8,94.8 106.6,94.2 107.3,93.5 107.7,92.7 108,92 108.1,91.2    108.1,90.5 107.8,89.7 107.4,89 107.1,88.6 107,88.5 106.8,88.3 106.6,88.1 106.4,87.9 106,87.5 105.1,86.6 104.3,85.8 103.4,85    102.6,84.1 101.7,83.3 100.9,82.4 100,81.6 99.2,80.8 98.4,79.9 97.5,79.1 96.7,78.3 95.8,77.4 95,76.6 94.1,75.7 93.3,74.9    92.5,74.1 91.6,73.2 90.8,72.4 89.9,71.5 89.1,70.7 88.2,69.9 87.4,69 86.5,68.2 85.7,67.4 84.9,66.5 84,65.7 83.2,64.8 82.3,64    81.5,63.2 80.6,62.3 79.8,61.5 79.4,61.1 79.2,60.9 78.9,60.7 78.8,60.5 78.6,60.3 78.2,59.9 77.3,59.3 76.2,58.6 75.1,58    73.9,57.5 72.6,57 71.3,56.5 69.8,56.1 68.3,55.8 66.7,55.5 65.1,55.3 63.5,55.1 61.8,55 61,55 60.1,55 59.8,54.9 59.5,54.9    59.2,54.8 58.9,54.7 58.7,54.6 58.6,54.4 58.5,54.3 58.5,54.1 58.6,54 58.7,53.8 58.8,53.7 59,53.6 59.3,53.5 59.6,53.4 59.9,53.3    60.3,53.3 61.2,53.3 62.2,53.4 64.1,53.5 66,53.7 67.9,53.9 69.7,54.3 71.4,54.7 73.1,55.1 74.7,55.6 76.2,56.2 77.6,56.9    78.9,57.6 80,58.3 81.1,59.1 81.6,59.5 81.8,59.7 82,59.9 82.2,60.1 82.4,60.3 82.8,60.7 83.7,61.6 84.5,62.4 85.4,63.3 86.2,64.1    87.1,64.9 87.9,65.8 88.7,66.6 89.6,67.4 90.4,68.3 91.3,69.1 92.1,70 93,70.8 93.8,71.6 94.7,72.5 95.5,73.3 96.3,74.1 97.2,75    98,75.8 98.9,76.7 99.7,77.5 100.6,78.3 101.4,79.2 102.2,80 103.1,80.8 103.9,81.7 104.8,82.5 105.6,83.4 106.5,84.2 107.3,85    108.2,85.9 109,86.7 109.4,87.1 109.6,87.3 109.8,87.6 110,87.8 110.2,88 110.6,88.4 111.1,89.3 111.4,90.2 111.5,91.2 111.4,92.1    111,93.1 110.4,94 109.6,94.9 108.7,95.7 107.5,96.5 106.1,97.2 104.6,97.8 103,98.4 101.2,98.8 99.4,99.2 97.5,99.4 95.5,99.6    93.6,99.6 91.6,99.6 89.7,99.4 88.8,99.3 87.9,99.1  "
   id="polyline91" />
</g></g>

















<g
   style="stroke-width:10;stroke-miterlimit:4;stroke-dasharray:none"
   transform="translate(23.272202,-250.72583)"
   id="g3964"><g
     style="stroke-width:10;stroke-miterlimit:4;stroke-dasharray:none"
     id="SPLINE_21_"
     transform="translate(-206.27751,-17.576529)">
	<path
   class="st0"
   d="m 92.8,230.2 c 14.6,1.6 31.8,-11.3 34.2,-25.8 l 12.6,-52.5 c 4.7,-14.4 -5.7,-34.6 -20.2,-39.2 l -48,-19.5 c -10,-4.3 -23.5,-2.8 -32.2,3.8 -9,6 -15,18.3 -14.2,29.1 l 3.3,70.6 c -0.6,15.8 16.6,32.9 32.3,32.2 z"
   id="path97"
   style="fill:none;stroke:#040000;stroke-width:10;stroke-linecap:round;stroke-linejoin:round;stroke-miterlimit:4;stroke-dasharray:none" />
</g><g
     style="stroke-width:10;stroke-miterlimit:4;stroke-dasharray:none"
     id="SPLINE_28_"
     transform="translate(-206.27751,-17.576529)">
	<path
   class="st0"
   d="m 83,181.8 c 4.3,0.5 9.3,-3.3 10,-7.5 L 96.7,159 c 1.4,-4.2 -1.7,-10.1 -5.9,-11.4 l -14.1,-5.7 c -2.9,-1.3 -6.9,-0.8 -9.4,1.1 -2.6,1.8 -4.4,5.3 -4.1,8.5 l 1,20.6 c -0.2,4.6 4.8,9.6 9.4,9.4 z"
   id="path118"
   style="fill:none;stroke:#040000;stroke-width:10;stroke-linecap:round;stroke-linejoin:round;stroke-miterlimit:4;stroke-dasharray:none" />
</g><g
     style="stroke-width:10;stroke-miterlimit:4;stroke-dasharray:none"
     id="POLYLINE_10_"
     transform="translate(-206.27751,-17.576529)">
	<polyline
   class="st0"
   points="128.2,149.1 128.4,148.3 128.5,147.4 128.8,145.7 128.8,144 128.8,142.2 128.5,140.5 128.2,138.8    127.7,137.1 127.1,135.5 126.4,133.9 125.5,132.4 124.6,131 123.5,129.6 122.3,128.4 121,127.2 119.6,126.1 118.2,125.2    116.7,124.3 115.9,124 115.5,123.8 115.1,123.6 114.6,123.5 114.2,123.3 113.3,122.9 111.5,122.2 109.7,121.5 108,120.8 106.2,120    104.4,119.3 102.6,118.6 100.8,117.9 99,117.2 97.3,116.4 95.5,115.7 93.7,115 91.9,114.3 90.1,113.6 88.3,112.8 86.6,112.1    84.8,111.4 83,110.7 81.2,110 79.4,109.2 77.7,108.5 75.9,107.8 74.1,107.1 72.3,106.4 70.5,105.6 68.7,104.9 67.8,104.6    67.4,104.4 67,104.2 66.6,104 66.2,103.9 65.4,103.6 63.6,103.1 61.9,102.8 60.1,102.6 58.4,102.6 56.6,102.7 54.9,102.9    53.2,103.3 51.5,103.8 49.9,104.5 48.3,105.3 46.8,106.2 45.3,107.2 44,108.3 42.7,109.5 41.6,110.9 40.5,112.3 39.6,113.8    38.8,115.3 38.1,116.9 37.6,118.6 37.2,120.3 36.9,122.1 36.8,123.8 36.8,124.7 36.8,125.6 36.8,125.9 36.7,126.2 36.6,126.5    36.4,126.8 36.1,127 35.9,127.2 35.5,127.3 35.2,127.3 34.9,127.3 34.5,127.2 34.2,127.1 34,126.9 33.8,126.6 33.6,126.4    33.5,126.1 33.4,125.7 33.4,124.7 33.4,123.7 33.6,121.7 33.9,119.7 34.4,117.7 35,115.8 35.8,113.9 36.7,112.1 37.7,110.4    38.9,108.7 40.3,107.2 41.7,105.8 43.3,104.5 44.9,103.3 46.7,102.3 48.5,101.4 50.4,100.6 52.3,100.1 54.3,99.6 56.3,99.3    58.3,99.2 60.3,99.3 62.4,99.5 64.4,99.9 66.4,100.4 67.3,100.7 67.8,100.9 68.2,101.1 68.7,101.2 69.1,101.4 70,101.8 71.8,102.5    73.6,103.2 75.3,103.9 77.1,104.7 78.9,105.4 80.7,106.1 82.5,106.8 84.3,107.5 86,108.3 87.8,109 89.6,109.7 91.4,110.4    93.2,111.1 95,111.9 96.7,112.6 98.5,113.3 100.3,114 102.1,114.7 103.9,115.5 105.7,116.2 107.4,116.9 109.2,117.6 111,118.3    112.8,119.1 114.6,119.8 115.5,120.1 115.9,120.3 116.4,120.5 116.8,120.7 117.3,120.9 118.2,121.3 119.9,122.3 121.6,123.4    123.2,124.6 124.7,126 126,127.4 127.3,129 128.4,130.7 129.4,132.4 130.2,134.2 130.9,136.1 131.5,138 131.9,140 132.1,142    132.2,144 132.1,146 131.9,148 131.7,148.9 131.5,149.9 131.4,150.2 131.2,150.5 131,150.8 130.7,151 130.5,151.1 130.1,151.2    129.8,151.2 129.5,151.2 129.1,151 128.8,150.9 128.6,150.6 128.4,150.4 128.3,150.1 128.2,149.8 128.2,149.4 128.2,149.1  "
   id="polyline145"
   style="fill:none;stroke:#040000;stroke-width:10;stroke-linecap:round;stroke-linejoin:round;stroke-miterlimit:4;stroke-dasharray:none" />
</g></g>

<g
   style="stroke-width:10;stroke-miterlimit:4;stroke-dasharray:none"
   transform="translate(472.88399,204.62158)"
   id="g4410"><g
     style="stroke-width:10;stroke-miterlimit:4;stroke-dasharray:none"
     id="SPLINE_22_"
     transform="translate(-653.21382,-387.30889)">
	<path
   class="st0"
   d="M 115.8,437.9 C 116,425.7 107,412.2 95.7,407.7 L 46.6,386.1 c -9.6,-4.5 -22.8,-3.4 -31.5,2.7 -9,5.6 -15.1,17.4 -14.6,28 l 0.7,34.5 c 0,10.2 5.8,21.1 14.2,26.9 l 48.2,34.3 c 9.5,7.3 25,8.3 35.4,2.3 10.8,-5.2 18.7,-18.6 18,-30.6 z"
   id="path100"
   style="fill:none;stroke:#040000;stroke-width:10;stroke-linecap:round;stroke-linejoin:round;stroke-miterlimit:4;stroke-dasharray:none" />
</g><g
     style="stroke-width:10;stroke-miterlimit:4;stroke-dasharray:none"
     id="SPLINE_30_"
     transform="translate(-653.21382,-387.30889)">
	<path
   class="st0"
   d="m 75.2,446.3 c 0.1,-3.3 -2.4,-7 -5.5,-8.2 l -13.4,-5.9 c -2.6,-1.2 -6.2,-0.9 -8.6,0.7 -2.4,1.5 -4.1,4.7 -4,7.6 l 0.2,9.4 c 0,2.8 1.6,5.8 3.9,7.3 l 13.1,9.3 c 2.6,2 6.8,2.3 9.6,0.6 2.9,-1.4 5.1,-5.1 4.9,-8.3 z"
   id="path124"
   style="fill:none;stroke:#040000;stroke-width:10;stroke-linecap:round;stroke-linejoin:round;stroke-miterlimit:4;stroke-dasharray:none" />
</g><g
     style="stroke-width:10;stroke-miterlimit:4;stroke-dasharray:none"
     id="POLYLINE_12_"
     transform="translate(-653.21382,-387.30889)">
	<polyline
   class="st0"
   points="104,438.1 103.9,437.3 103.9,436.5 103.7,434.8 103.3,433.2 102.8,431.6 102.2,430.1 101.5,428.6    100.7,427.1 99.8,425.7 98.8,424.4 97.7,423.2 96.5,422.1 95.2,421 93.8,420.1 92.4,419.2 91.6,418.9 91.3,418.7 90.9,418.5    90.4,418.3 90,418.1 89.1,417.7 87.4,417 85.6,416.2 83.9,415.4 82.1,414.7 80.4,413.9 78.6,413.1 76.9,412.3 75.1,411.6    73.4,410.8 71.6,410 69.8,409.3 68.1,408.5 66.3,407.7 64.6,406.9 62.8,406.2 61.1,405.4 59.3,404.6 57.6,403.9 55.8,403.1    54.1,402.3 52.3,401.5 50.6,400.8 48.8,400 47.1,399.2 45.3,398.4 43.5,397.7 42.7,397.3 42.2,397.1 41.8,396.9 41.4,396.7    41.1,396.6 40.3,396.3 38.6,395.8 37,395.4 35.3,395.2 33.6,395.1 31.9,395.2 30.2,395.3 28.6,395.7 26.9,396.1 25.4,396.7    23.8,397.4 22.3,398.2 20.9,399.1 19.6,400.2 18.4,401.3 17.2,402.6 16.2,403.9 15.3,405.3 14.4,406.8 13.8,408.3 13.2,409.9    12.8,411.6 12.5,413.2 12.3,414.9 12.2,415.7 12.2,416.6 12.2,416.9 12.1,417.2 12,417.5 11.8,417.8 11.5,418 11.3,418.2    10.9,418.3 10.6,418.3 10.2,418.3 9.9,418.2 9.6,418 9.4,417.8 9.2,417.6 9,417.3 8.9,417 8.9,416.7 8.9,415.7 8.9,414.7    9.1,412.7 9.5,410.8 10,408.9 10.6,407.1 11.4,405.3 12.4,403.6 13.4,401.9 14.7,400.4 16,398.9 17.4,397.6 19,396.4 20.6,395.3    22.3,394.4 24.1,393.6 25.9,392.9 27.8,392.4 29.7,392 31.7,391.8 33.6,391.7 35.6,391.9 37.5,392.1 39.5,392.5 41.4,393.1    42.3,393.5 42.7,393.6 43.2,393.8 43.6,394 44,394.2 44.9,394.6 46.7,395.4 48.4,396.1 50.2,396.9 51.9,397.7 53.7,398.4    55.4,399.2 57.2,400 58.9,400.8 60.7,401.5 62.4,402.3 64.2,403.1 65.9,403.9 67.7,404.6 69.5,405.4 71.2,406.2 73,406.9    74.7,407.7 76.5,408.5 78.2,409.3 80,410 81.7,410.8 83.5,411.6 85.2,412.3 87,413.1 88.7,413.9 90.5,414.7 91.4,415 91.8,415.2    92.2,415.4 92.7,415.6 93.1,415.8 94,416.3 95.6,417.2 97.2,418.3 98.7,419.5 100.1,420.8 101.4,422.2 102.5,423.8 103.6,425.3    104.5,427 105.4,428.7 106,430.5 106.6,432.4 107,434.2 107.2,436.1 107.3,437.1 107.3,438 107.3,438.4 107.2,438.7 107.1,439    106.9,439.2 106.7,439.5 106.4,439.6 106,439.7 105.7,439.8 105.4,439.7 105,439.7 104.7,439.5 104.5,439.3 104.3,439 104.1,438.8    104,438.4 104,438.1  "
   id="polyline151"
   style="fill:none;stroke:#040000;stroke-width:10;stroke-linecap:round;stroke-linejoin:round;stroke-miterlimit:4;stroke-dasharray:none" />
</g></g>
<g
   style="stroke-width:10;stroke-miterlimit:4;stroke-dasharray:none"
   transform="translate(21.583962,5.5220164)"
   id="g4099"><g
     style="stroke-width:10;stroke-miterlimit:4;stroke-dasharray:none"
     id="SPLINE_23_"
     transform="translate(-55.654746,-247.06971)">
	<path
   class="st0"
   d="M 333.1,261 C 332,245.9 314.9,231.3 299.8,232.3 l -28.5,-0.1 c -16.5,-1.7 -35.2,16.7 -33.9,33.2 l -1.7,102.2 c -0.5,10.8 5.8,22.7 14.9,28.5 8.8,6.3 22.2,7.6 32,3.1 l 43,-18.1 c 13.4,-4.7 23.3,-22.4 20.3,-36.2 z"
   id="path103"
   style="fill:none;stroke:#040000;stroke-width:10;stroke-linecap:round;stroke-linejoin:round;stroke-miterlimit:4;stroke-dasharray:none" />
</g><g
     style="stroke-width:10;stroke-miterlimit:4;stroke-dasharray:none"
     id="SPLINE_31_"
     transform="translate(-55.654746,-247.06971)">
	<path
   class="st0"
   d="m 302.6,297.5 c -0.4,-5.1 -6.1,-10 -11.2,-9.6 h -9.6 c -5.5,-0.6 -11.8,5.6 -11.4,11.2 l -0.6,34.3 c -0.2,3.6 1.9,7.6 5,9.6 2.9,2.1 7.4,2.6 10.8,1.1 L 300,338 c 4.5,-1.6 7.8,-7.5 6.8,-12.2 z"
   id="path127"
   style="fill:none;stroke:#040000;stroke-width:10;stroke-linecap:round;stroke-linejoin:round;stroke-miterlimit:4;stroke-dasharray:none" />
</g><g
     style="stroke-width:10;stroke-miterlimit:4;stroke-dasharray:none"
     id="POLYLINE_13_"
     transform="translate(-55.654746,-247.06971)">
	<polyline
   class="st0"
   points="321.4,262.7 321.3,261.9 321.1,261 320.7,259.4 320.1,257.8 319.4,256.2 318.5,254.7 317.6,253.2    316.5,251.9 315.3,250.6 314.1,249.4 312.7,248.4 311.3,247.4 309.8,246.5 308.2,245.8 306.6,245.2 305,244.7 303.3,244.4    301.6,244.2 300.7,244.1 300.3,244.1 299.8,244.1 299.4,244.1 298.9,244.1 297.9,244.1 296,244.1 294.1,244.1 292.2,244.1    290.3,244.1 288.4,244.1 286.6,244.1 284.7,244 282.8,244 280.9,244 279,244 277.1,244 275.2,244 273.3,244 272.3,244 271.8,244    271.4,244 270.9,244 270.5,244 269.7,244.1 268,244.3 266.3,244.6 264.6,245 263,245.6 261.5,246.3 260,247.1 258.5,248.1    257.2,249.1 255.9,250.3 254.8,251.5 253.7,252.8 252.7,254.3 251.9,255.7 251.1,257.3 250.5,258.9 250,260.5 249.7,262.2    249.4,263.9 249.4,264.7 249.3,265.6 249.3,265.9 249.2,266.2 249.1,266.5 248.8,266.8 248.6,267 248.3,267.1 248,267.2    247.6,267.2 247.3,267.2 247,267.1 246.7,266.9 246.4,266.7 246.2,266.5 246.1,266.2 246,265.9 246,265.5 246,264.5 246.1,263.6    246.3,261.6 246.8,259.7 247.3,257.8 248,255.9 248.9,254.2 249.9,252.5 251,250.8 252.2,249.3 253.6,247.9 255,246.5 256.6,245.3    258.2,244.2 260,243.3 261.8,242.5 263.6,241.8 265.5,241.3 267.5,240.9 269.4,240.7 270.4,240.6 270.9,240.6 271.4,240.6    271.9,240.6 272.3,240.6 273.3,240.6 275.2,240.6 277.1,240.6 279,240.7 280.9,240.7 282.8,240.7 284.7,240.7 286.6,240.7    288.5,240.7 290.4,240.7 292.3,240.7 294.2,240.7 296.1,240.7 297.9,240.7 298.9,240.7 299.4,240.7 299.8,240.7 300.3,240.7    300.8,240.8 301.8,240.8 303.8,241.1 305.8,241.5 307.7,242 309.5,242.7 311.3,243.5 313.1,244.5 314.7,245.6 316.3,246.9    317.7,248.2 319.1,249.7 320.3,251.3 321.4,252.9 322.4,254.7 323.2,256.5 323.9,258.4 324.4,260.3 324.6,261.2 324.8,262.2    324.8,262.6 324.8,262.9 324.7,263.2 324.5,263.5 324.3,263.7 324,263.9 323.7,264.1 323.4,264.2 323,264.2 322.7,264.1 322.4,264    322.1,263.8 321.9,263.6 321.7,263.3 321.5,263.1 321.4,262.7  "
   id="polyline154"
   style="fill:none;stroke:#040000;stroke-width:10;stroke-linecap:round;stroke-linejoin:round;stroke-miterlimit:4;stroke-dasharray:none" />
</g></g>
<g
   style="stroke-width:10;stroke-miterlimit:4;stroke-dasharray:none"
   transform="translate(33.484352,-129.47445)"
   id="g4045"><g
     style="stroke-width:10;stroke-miterlimit:4;stroke-dasharray:none"
     id="SPLINE_24_"
     transform="translate(-221.84059,-94.236757)">
	<path
   class="st0"
   d="M 119.6,264.6 C 121.7,248.2 103.8,229 87.3,229.9 L 58,228.7 C 43.2,227 25.8,240.4 23.6,255.2 L 5.4,338.3 c -4.1,14.1 5.6,33.2 19.4,38.2 l 44.6,19.7 c 9.6,4.5 22.8,3.6 31.7,-2.4 9.1,-5.5 15.7,-16.9 15.7,-27.6 z"
   id="path106"
   style="fill:none;stroke:#040000;stroke-width:10;stroke-linecap:round;stroke-linejoin:round;stroke-miterlimit:4;stroke-dasharray:none" />
</g><g
     style="stroke-width:10;stroke-miterlimit:4;stroke-dasharray:none"
     id="SPLINE_32_"
     transform="translate(-221.84059,-94.236757)">
	<path
   class="st0"
   d="m 84.8,296.5 c 0.7,-5.6 -5.4,-12.1 -11,-11.8 l -9.9,-0.4 c -5,-0.6 -11,4 -11.7,9 L 46,321.6 c -1.4,4.8 1.9,11.3 6.6,13 l 15.2,6.7 c 3.3,1.5 7.7,1.2 10.7,-0.8 3.1,-1.9 5.3,-5.7 5.3,-9.4 z"
   id="path130"
   style="fill:none;stroke:#040000;stroke-width:10;stroke-linecap:round;stroke-linejoin:round;stroke-miterlimit:4;stroke-dasharray:none" />
</g><g
     style="stroke-width:10;stroke-miterlimit:4;stroke-dasharray:none"
     id="POLYLINE_14_"
     transform="translate(-221.84059,-94.236757)">
	<polyline
   class="st0"
   points="107.8,264.3 107.8,263.4 107.8,262.6 107.6,260.9 107.4,259.2 106.9,257.5 106.4,255.9 105.7,254.4    104.9,252.8 104,251.4 103,250 101.9,248.7 100.7,247.5 99.4,246.4 98,245.4 96.6,244.5 95,243.7 93.5,243.1 91.8,242.6    90.2,242.2 88.5,241.9 87.6,241.8 87.2,241.8 86.8,241.8 86.3,241.7 85.8,241.7 84.8,241.7 82.9,241.6 80.9,241.5 79,241.4    77,241.3 75.1,241.3 73.1,241.2 71.2,241.1 69.2,241 67.3,240.9 65.3,240.9 63.4,240.8 61.5,240.7 59.5,240.6 58.5,240.6 58,240.6    57.6,240.5 57.1,240.5 56.7,240.5 55.9,240.5 54.2,240.7 52.5,240.9 50.8,241.3 49.2,241.8 47.6,242.5 46.1,243.2 44.6,244.1    43.2,245.1 41.9,246.2 40.7,247.3 39.6,248.6 38.6,250 37.7,251.4 36.9,252.9 36.2,254.5 35.6,256.1 35.4,256.9 35.2,257.7    35.1,258.1 34.9,258.3 34.7,258.6 34.5,258.8 34.2,258.9 33.9,259 33.5,259.1 33.2,259 32.9,258.9 32.6,258.8 32.3,258.5    32.1,258.3 32,258 31.9,257.7 31.9,257.3 31.9,257 32.1,256.1 32.4,255.1 33,253.3 33.8,251.4 34.7,249.7 35.8,248.1 37,246.5    38.3,245 39.7,243.7 41.2,242.4 42.8,241.3 44.5,240.2 46.2,239.4 48.1,238.6 49.9,238 51.8,237.6 53.8,237.3 55.7,237.2    56.7,237.1 57.2,237.1 57.7,237.2 58.2,237.2 58.7,237.2 59.6,237.2 61.6,237.3 63.5,237.4 65.5,237.5 67.4,237.6 69.4,237.6    71.3,237.7 73.3,237.8 75.2,237.9 77.2,238 79.1,238.1 81.1,238.1 83,238.2 85,238.3 86,238.3 86.4,238.4 86.9,238.4 87.4,238.4    87.9,238.4 88.9,238.5 90.8,238.8 92.8,239.3 94.6,239.9 96.4,240.7 98.2,241.6 99.9,242.6 101.5,243.7 103,245 104.4,246.4    105.7,247.9 106.8,249.5 107.9,251.2 108.8,252.9 109.6,254.7 110.2,256.6 110.7,258.5 111,260.5 111.2,262.4 111.2,263.4    111.2,264.4 111.1,264.7 111,265 110.9,265.3 110.7,265.6 110.4,265.8 110.1,265.9 109.8,266 109.4,266 109.1,266 108.8,265.9    108.5,265.7 108.3,265.5 108.1,265.2 107.9,264.9 107.8,264.6 107.8,264.3  "
   id="polyline157"
   style="fill:none;stroke:#040000;stroke-width:10;stroke-linecap:round;stroke-linejoin:round;stroke-miterlimit:4;stroke-dasharray:none" />
</g></g>
<g
   style="stroke-width:10;stroke-miterlimit:4;stroke-dasharray:none"
   transform="translate(86.693882,-171.33209)"
   id="g4018"><g
     style="stroke-width:10;stroke-miterlimit:4;stroke-dasharray:none"
     id="SPLINE_20_"
     transform="translate(-118.08919,-104.99671)">
	<path
   class="st0"
   d="m 244.9,114.4 c -14.6,4 -25.8,23.5 -21.9,38.1 l 9.8,52.2 c 1.7,14.6 18.3,28.5 33.1,27.5 l 32.5,0.1 c 15.5,1.3 33.2,-14.4 33.7,-30 l 7.9,-70.2 c 1.5,-10.9 -3.8,-23.6 -12.6,-30.2 -8.4,-7.1 -22,-9.3 -32.3,-5.3 z"
   id="path94"
   style="fill:none;stroke:#040000;stroke-width:10;stroke-linecap:round;stroke-linejoin:round;stroke-miterlimit:4;stroke-dasharray:none" />
</g><g
     style="stroke-width:10;stroke-miterlimit:4;stroke-dasharray:none"
     id="SPLINE_33_"
     transform="translate(-118.08919,-104.99671)">
	<path
   class="st0"
   d="m 272.3,149.8 c -4.3,1.2 -7.5,6.9 -6.4,11.1 l 2.9,15.3 c 0.5,4.3 5.4,8.3 9.7,8.1 h 9.5 c 4.5,0.4 9.7,-4.2 9.9,-8.8 l 2.3,-20.6 c 0.4,-3.2 -1.1,-6.9 -3.7,-8.8 -2.5,-2.1 -6.5,-2.7 -9.5,-1.6 z"
   id="path133"
   style="fill:none;stroke:#040000;stroke-width:10;stroke-linecap:round;stroke-linejoin:round;stroke-miterlimit:4;stroke-dasharray:none" />
</g><g
     style="stroke-width:10;stroke-miterlimit:4;stroke-dasharray:none"
     id="POLYLINE_15_"
     transform="translate(-118.08919,-104.99671)">
	<polyline
   class="st0"
   points="328.3,130.7 328.4,129.9 328.4,129.1 328.4,127.3 328.3,125.6 328,123.9 327.6,122.3 327,120.7    326.4,119.1 325.6,117.6 324.7,116.1 323.7,114.7 322.6,113.4 321.4,112.2 320.1,111.1 318.7,110.1 317.3,109.2 315.7,108.4    314.2,107.7 312.6,107.2 310.9,106.8 309.2,106.5 307.5,106.4 305.8,106.4 304.1,106.5 302.4,106.7 300.7,107.1 299.9,107.3    299.5,107.5 299.1,107.6 298.6,107.8 298.2,108 297.2,108.3 295.4,108.9 293.5,109.6 291.7,110.3 289.8,110.9 287.9,111.6    286.1,112.3 284.2,112.9 282.4,113.6 280.5,114.2 278.6,114.9 276.8,115.6 274.9,116.2 273.1,116.9 271.2,117.6 269.3,118.2    267.5,118.9 265.6,119.5 263.8,120.2 261.9,120.9 260,121.5 258.2,122.2 256.3,122.8 254.5,123.5 252.6,124.2 250.7,124.8    249.8,125.2 249.4,125.3 248.9,125.5 248.5,125.6 248.1,125.8 247.3,126.1 245.7,126.9 244.3,127.8 242.9,128.8 241.5,129.9    240.3,131.1 239.2,132.4 238.1,133.8 237.2,135.2 236.4,136.8 235.7,138.4 235.2,140 234.8,141.7 234.5,143.4 234.3,145.1    234.3,146.8 234.4,148.5 234.5,149.4 234.7,150.2 234.7,150.6 234.7,150.9 234.6,151.2 234.4,151.5 234.2,151.7 234,151.9    233.7,152.1 233.3,152.2 233,152.2 232.7,152.2 232.3,152.1 232.1,151.9 231.8,151.7 231.6,151.5 231.5,151.2 231.4,150.9    231.2,149.9 231.1,148.9 230.9,146.9 231,144.9 231.1,142.9 231.5,141 232,139 232.6,137.2 233.4,135.3 234.3,133.6 235.4,131.9    236.5,130.3 237.8,128.8 239.3,127.4 240.8,126.1 242.4,125 244.1,123.9 245.9,123.1 246.8,122.7 247.3,122.5 247.8,122.3    248.2,122.2 248.7,122 249.6,121.7 251.5,121 253.3,120.3 255.2,119.7 257.1,119 258.9,118.3 260.8,117.7 262.6,117 264.5,116.4    266.4,115.7 268.2,115 270.1,114.4 271.9,113.7 273.8,113 275.7,112.4 277.5,111.7 279.4,111.1 281.2,110.4 283.1,109.7 285,109.1    286.8,108.4 288.7,107.7 290.5,107.1 292.4,106.4 294.3,105.8 296.1,105.1 297,104.8 297.5,104.6 298,104.4 298.4,104.3    298.9,104.1 299.9,103.9 301.8,103.4 303.7,103.1 305.7,103 307.7,103 309.6,103.2 311.6,103.5 313.5,104 315.4,104.6 317.2,105.3    318.9,106.2 320.6,107.3 322.2,108.4 323.7,109.7 325.1,111.1 326.4,112.6 327.5,114.2 328.6,115.9 329.4,117.7 330.2,119.5    330.8,121.4 331.3,123.3 331.6,125.2 331.8,127.2 331.8,129.2 331.7,130.1 331.6,131.1 331.6,131.4 331.4,131.7 331.3,132    331,132.2 330.7,132.4 330.4,132.5 330.1,132.6 329.8,132.6 329.4,132.5 329.1,132.4 328.8,132.2 328.6,132 328.4,131.7    328.3,131.4 328.3,131.1 328.3,130.7  "
   id="polyline160"
   style="fill:none;stroke:#040000;stroke-width:10;stroke-linecap:round;stroke-linejoin:round;stroke-miterlimit:4;stroke-dasharray:none" />
</g></g>
<g
   style="stroke-width:10;stroke-miterlimit:4;stroke-dasharray:none"
   transform="translate(547.79715,171.62412)"
   id="g4418"><g
     style="stroke-width:10;stroke-miterlimit:4;stroke-dasharray:none"
     id="SPLINE_25_"
     transform="translate(-653.21382,-387.30889)">
	<path
   class="st0"
   d="m 235.1,452.2 c 1.5,-16.3 -16.6,-34.8 -32.9,-33.6 l -51.5,-1.3 c -8.9,-0.4 -18.5,3.5 -24.7,9.8 -6.4,6.2 -10.2,15.8 -9.9,24.7 l 1.5,67.7 c -1.1,16.1 16.6,34 32.7,33 l 50.3,1.6 c 8.8,0.4 18.4,-3.3 24.6,-9.5 6.4,-6.1 10.4,-15.5 10.2,-24.3 z"
   id="path109"
   style="fill:none;stroke:#040000;stroke-width:10;stroke-linecap:round;stroke-linejoin:round;stroke-miterlimit:4;stroke-dasharray:none" />
</g><g
     style="stroke-width:10;stroke-miterlimit:4;stroke-dasharray:none"
     id="SPLINE_34_"
     transform="translate(-653.21382,-387.30889)">
	<path
   class="st0"
   d="m 195.2,474.7 c 0.5,-5.3 -5.4,-11.3 -10.6,-10.9 l -16.7,-0.4 c -2.9,-0.1 -6,1.1 -8,3.2 -2.1,2 -3.3,5.1 -3.2,8 l 0.5,21.9 c -0.4,5.2 5.4,11 10.6,10.7 l 16.3,0.5 c 2.8,0.1 5.9,-1.1 8,-3.1 2.1,-2 3.4,-5 3.3,-7.9 z"
   id="path136"
   style="fill:none;stroke:#040000;stroke-width:10;stroke-linecap:round;stroke-linejoin:round;stroke-miterlimit:4;stroke-dasharray:none" />
</g><g
     style="stroke-width:10;stroke-miterlimit:4;stroke-dasharray:none"
     id="POLYLINE_16_"
     transform="translate(-653.21382,-387.30889)">
	<polyline
   class="st0"
   points="223.3,452.2 223.3,451.4 223.3,450.5 223.1,448.9 222.7,447.2 222.3,445.6 221.7,444 221,442.4    220.2,441 219.2,439.5 218.2,438.2 217.1,437 215.8,435.8 214.5,434.7 213.1,433.8 211.7,432.9 210.1,432.2 208.6,431.6    206.9,431.1 205.3,430.7 203.6,430.5 202.8,430.4 202.4,430.4 201.9,430.4 201.4,430.4 200.9,430.3 200,430.3 198,430.3 196,430.2    194,430.2 192,430.1 190,430.1 188.1,430 186.1,430 184.1,429.9 182.1,429.9 180.1,429.8 178.2,429.8 176.2,429.7 174.2,429.7    172.2,429.6 170.2,429.6 168.2,429.5 166.3,429.5 164.3,429.4 162.3,429.4 160.3,429.3 158.3,429.3 156.3,429.2 154.4,429.2    152.4,429.1 151.4,429.1 150.9,429.1 150.4,429.1 150,429.1 149.6,429.1 148.7,429.1 147,429.2 145.4,429.5 143.7,429.9    142.1,430.5 140.6,431.1 139.1,431.9 137.6,432.8 136.3,433.8 135,434.9 133.8,436.1 132.7,437.4 131.7,438.7 130.8,440.2    130,441.7 129.3,443.2 128.8,444.8 128.4,446.5 128.1,448.1 127.9,449.8 127.9,450.6 127.9,451.5 127.9,451.8 127.8,452.1    127.7,452.4 127.5,452.7 127.2,452.9 126.9,453.1 126.6,453.2 126.3,453.2 125.9,453.2 125.6,453.1 125.3,452.9 125,452.7    124.8,452.5 124.7,452.2 124.6,451.9 124.5,451.6 124.5,450.6 124.6,449.6 124.8,447.7 125.1,445.8 125.6,443.9 126.2,442    126.9,440.2 127.8,438.5 128.9,436.8 130,435.3 131.3,433.8 132.7,432.4 134.2,431.1 135.7,430 137.4,429 139.1,428.1 140.9,427.3    142.8,426.7 144.7,426.2 146.6,425.9 148.5,425.7 149.5,425.7 150,425.7 150.5,425.7 151,425.7 151.5,425.7 152.5,425.7    154.5,425.8 156.4,425.8 158.4,425.9 160.4,425.9 162.4,426 164.4,426 166.3,426.1 168.3,426.1 170.3,426.2 172.3,426.2    174.3,426.3 176.3,426.3 178.2,426.4 180.2,426.4 182.2,426.5 184.2,426.5 186.2,426.6 188.1,426.6 190.1,426.7 192.1,426.7    194.1,426.8 196.1,426.8 198.1,426.9 200,426.9 201,427 201.5,427 202,427 202.5,427 203,427 204,427.1 205.9,427.4 207.8,427.8    209.7,428.4 211.5,429.1 213.2,429.9 214.9,430.9 216.5,432 218.1,433.3 219.5,434.6 220.8,436 222,437.6 223.1,439.2 224,440.9    224.8,442.7 225.5,444.5 226,446.4 226.4,448.3 226.6,450.3 226.7,451.2 226.7,452.2 226.7,452.5 226.6,452.9 226.4,453.1    226.2,453.4 226,453.6 225.7,453.8 225.4,453.9 225,453.9 224.7,453.9 224.4,453.8 224.1,453.6 223.8,453.4 223.6,453.2    223.5,452.9 223.4,452.6 223.3,452.2  "
   id="polyline163"
   style="fill:none;stroke:#040000;stroke-width:10;stroke-linecap:round;stroke-linejoin:round;stroke-miterlimit:4;stroke-dasharray:none" />
</g></g>
<g
   style="stroke-width:10;stroke-miterlimit:4;stroke-dasharray:none"
   transform="translate(-228.01437,-197.53258)"
   id="g3991"><g
     style="stroke-width:10;stroke-miterlimit:4;stroke-dasharray:none"
     id="SPLINE_26_"
     transform="translate(119.92225,-89.498062)">
	<path
   class="st0"
   d="m 215.8,153.5 c -1.4,-14.3 -17.3,-28.1 -31.6,-27.5 -14,-1.5 -30.4,11.8 -31.8,25.8 l -11.1,62.4 c -1.8,9.3 1,20.1 7.1,27.4 5.9,7.4 16,12.3 25.4,12.3 l 18.5,0.4 c 9.6,0.4 20.1,-4.3 26.2,-11.7 6.4,-7.2 9.5,-18.2 7.7,-27.7 z"
   id="path112"
   style="fill:none;stroke:#040000;stroke-width:10;stroke-linecap:round;stroke-linejoin:round;stroke-miterlimit:4;stroke-dasharray:none" />
</g><g
     style="stroke-width:10;stroke-miterlimit:4;stroke-dasharray:none"
     id="SPLINE_35_"
     transform="translate(119.92225,-89.498062)">
	<path
   class="st0"
   d="m 190.9,185.5 c -0.3,-3.1 -3.8,-6.2 -7,-6.1 -3.1,-0.3 -6.7,2.6 -7,5.7 l -2.4,13.7 c -0.4,2 0.2,4.4 1.6,6 1.3,1.6 3.5,2.7 5.6,2.7 l 4.1,0.1 c 2.1,0.1 4.4,-0.9 5.8,-2.6 1.4,-1.6 2.1,-4 1.7,-6.1 z"
   id="path139"
   style="fill:none;stroke:#040000;stroke-width:10;stroke-linecap:round;stroke-linejoin:round;stroke-miterlimit:4;stroke-dasharray:none" />
</g><g
     style="stroke-width:10;stroke-miterlimit:4;stroke-dasharray:none"
     id="POLYLINE_17_"
     transform="translate(119.92225,-89.498062)">
	<polyline
   class="st0"
   points="204.2,155.5 204,154.7 203.8,153.8 203.3,152.2 202.7,150.6 202,149.1 201.1,147.6 200.1,146.2    199,144.9 197.8,143.6 196.5,142.5 195.2,141.5 193.7,140.6 192.2,139.8 190.6,139.1 189,138.6 187.3,138.2 185.6,138 184.7,137.9    184.3,137.9 183.9,137.8 183.5,137.8 183.1,137.8 182.2,137.9 180.6,138 179,138.3 177.4,138.7 175.9,139.3 174.4,140 173,140.8    171.6,141.7 170.4,142.7 169.2,143.9 168.1,145.1 167.1,146.4 166.3,147.8 165.5,149.3 164.9,150.8 164.4,152.3 164.2,153.1    164.1,153.5 164.1,153.9 164,154.4 163.9,154.9 163.7,155.9 163.4,157.8 163,159.8 162.7,161.7 162.3,163.7 162,165.6 161.6,167.6    161.3,169.5 160.9,171.5 160.6,173.4 160.2,175.4 159.9,177.4 159.5,179.3 159.2,181.3 158.8,183.2 158.5,185.2 158.1,187.1    157.8,189.1 157.5,191 157.1,193 156.8,194.9 156.4,196.9 156.1,198.8 155.7,200.8 155.4,202.7 155,204.7 154.7,206.6 154.3,208.6    154,210.5 153.6,212.5 153.3,214.4 153.1,215.4 152.9,216.4 152.8,216.7 152.7,217 152.5,217.2 152.2,217.4 152,217.6 151.7,217.7    151.3,217.8 151,217.7 150.6,217.6 150.3,217.5 150.1,217.3 149.9,217 149.7,216.7 149.6,216.4 149.6,216.1 149.6,215.8    149.8,214.8 150,213.8 150.3,211.9 150.6,209.9 151,208 151.3,206 151.7,204.1 152,202.1 152.4,200.2 152.7,198.2 153.1,196.3    153.4,194.3 153.8,192.4 154.1,190.4 154.5,188.5 154.8,186.5 155.2,184.6 155.5,182.6 155.9,180.7 156.2,178.7 156.6,176.8    156.9,174.8 157.3,172.9 157.6,170.9 158,169 158.3,167 158.6,165.1 159,163.1 159.3,161.2 159.7,159.2 160,157.3 160.4,155.3    160.6,154.3 160.6,153.8 160.7,153.3 160.8,152.9 160.9,152.4 161.2,151.5 161.7,149.6 162.4,147.9 163.3,146.2 164.3,144.5    165.5,143 166.7,141.5 168.1,140.2 169.6,139 171.2,137.9 172.9,137 174.6,136.2 176.4,135.5 178.3,135 180.2,134.7 182.1,134.5    183,134.5 183.5,134.5 184,134.5 184.5,134.5 185,134.5 186,134.6 187.9,134.9 189.9,135.4 191.8,136 193.6,136.7 195.4,137.6    197,138.7 198.6,139.9 200.1,141.2 201.5,142.6 202.8,144.1 203.9,145.8 204.9,147.5 205.8,149.3 206.5,151.1 207.1,153 207.3,154    207.5,155 207.5,155.3 207.5,155.6 207.4,155.9 207.2,156.2 207,156.4 206.8,156.7 206.5,156.8 206.1,156.9 205.8,156.9    205.5,156.9 205.1,156.8 204.9,156.6 204.6,156.4 204.4,156.1 204.3,155.8 204.2,155.5  "
   id="polyline166"
   style="fill:none;stroke:#040000;stroke-width:10;stroke-linecap:round;stroke-linejoin:round;stroke-miterlimit:4;stroke-dasharray:none" />
</g></g>
<g
   style="stroke-width:10;stroke-miterlimit:4;stroke-dasharray:none"
   transform="translate(-245.81689,18.736426)"
   id="g4072"><g
     style="stroke-width:10;stroke-miterlimit:4;stroke-dasharray:none"
     id="g4402"><g
       style="stroke-width:10;stroke-miterlimit:4;stroke-dasharray:none"
       transform="translate(131.48201,-267.4187)"
       id="SPLINE_27_">
	<path
   style="fill:none;stroke:#040000;stroke-width:10;stroke-linecap:round;stroke-linejoin:round;stroke-miterlimit:4;stroke-dasharray:none"
   id="path115"
   d="m 233.5,287.9 c 1.4,-16.3 -16.8,-34.6 -33.1,-33.4 L 165,253.8 c -15.6,-1.6 -33.7,14.2 -34.2,29.8 l -11.2,96 c -1.2,9 2,19.3 8,26 5.9,7 15.5,11.5 24.7,11.6 l 47.7,1.2 c 8.8,0.3 18.4,-3.4 24.6,-9.7 6.4,-6.1 10.3,-15.6 10,-24.4 z"
   class="st0" />
</g><g
       style="stroke-width:10;stroke-miterlimit:4;stroke-dasharray:none"
       transform="translate(131.48201,-267.4187)"
       id="SPLINE_36_">
	<path
   style="fill:none;stroke:#040000;stroke-width:10;stroke-linecap:round;stroke-linejoin:round;stroke-miterlimit:4;stroke-dasharray:none"
   id="path142"
   d="m 198.5,320.4 c 0.5,-5.8 -5.9,-12.3 -11.7,-11.8 l -12.5,-0.2 c -5.5,-0.6 -11.9,5 -12.1,10.6 l -4,34 c -0.4,3.2 0.7,6.8 2.8,9.2 2.1,2.5 5.5,4.1 8.7,4.1 l 16.9,0.4 c 3.1,0.1 6.5,-1.2 8.7,-3.4 2.3,-2.2 3.6,-5.5 3.6,-8.6 z"
   class="st0" />
</g><g
       style="stroke-width:10;stroke-miterlimit:4;stroke-dasharray:none"
       transform="translate(131.48201,-267.4187)"
       id="POLYLINE_18_">
	<polyline
   style="fill:none;stroke:#040000;stroke-width:10;stroke-linecap:round;stroke-linejoin:round;stroke-miterlimit:4;stroke-dasharray:none"
   id="polyline169"
   points="221.7,288 221.7,287.2 221.6,286.3 221.4,284.6 221,283 220.6,281.4 220,279.8 219.3,278.2    218.4,276.8 217.5,275.4 216.5,274 215.3,272.8 214.1,271.6 212.8,270.6 211.4,269.6 209.9,268.8 208.4,268.1 206.8,267.5    205.2,267 203.5,266.6 201.8,266.4 201,266.3 200.6,266.3 200.2,266.3 199.7,266.3 199.2,266.3 198.2,266.3 196.2,266.2    194.3,266.2 192.3,266.2 190.3,266.1 188.4,266.1 186.4,266 184.4,266 182.5,266 180.5,265.9 178.5,265.9 176.6,265.9 174.6,265.8    172.6,265.8 170.7,265.7 168.7,265.7 166.7,265.7 165.8,265.6 165.3,265.6 164.8,265.6 164.3,265.6 163.9,265.6 163.1,265.7    161.4,265.8 159.7,266.1 158,266.5 156.4,267.1 154.9,267.8 153.4,268.6 151.9,269.5 150.6,270.5 149.3,271.6 148.1,272.8    147,274.1 146,275.5 145.1,277 144.4,278.5 143.7,280.1 143.2,281.7 142.8,283.3 142.7,284.2 142.5,285 142.5,285.3 142.3,285.6    142.2,285.9 141.9,286.1 141.7,286.3 141.3,286.4 141,286.5 140.7,286.5 140.3,286.4 140,286.3 139.8,286.1 139.5,285.9    139.4,285.6 139.2,285.3 139.2,285 139.2,284.6 139.3,283.7 139.5,282.7 139.9,280.8 140.5,278.9 141.3,277.1 142.2,275.3    143.2,273.7 144.3,272.1 145.6,270.6 147,269.1 148.4,267.9 150,266.7 151.7,265.6 153.4,264.7 155.2,263.9 157.1,263.3 159,262.8    160.9,262.5 162.9,262.3 163.9,262.2 164.3,262.2 164.8,262.2 165.3,262.3 165.8,262.3 166.8,262.3 168.8,262.3 170.7,262.4    172.7,262.4 174.7,262.4 176.6,262.5 178.6,262.5 180.6,262.6 182.5,262.6 184.5,262.6 186.5,262.7 188.4,262.7 190.4,262.7    192.4,262.8 194.3,262.8 196.3,262.9 198.3,262.9 199.2,262.9 199.7,262.9 200.2,262.9 200.7,262.9 201.2,263 202.2,263    204.1,263.3 206,263.7 207.9,264.3 209.7,265 211.5,265.8 213.1,266.8 214.8,267.9 216.3,269.1 217.7,270.4 219,271.9 220.2,273.4    221.3,275 222.3,276.7 223.1,278.5 223.8,280.3 224.3,282.2 224.7,284.1 225,286 225,287 225.1,288 225,288.3 224.9,288.6    224.8,288.9 224.6,289.1 224.3,289.4 224.1,289.5 223.7,289.6 223.4,289.7 223,289.6 222.7,289.5 222.4,289.4 222.2,289.2    222,288.9 221.8,288.6 221.7,288.3 221.7,288  "
   class="st0" />
</g></g></g>
<g
   style="stroke-width:10;stroke-miterlimit:4;stroke-dasharray:none"
   transform="translate(628.06126,195.70335)"
   id="g4426"><g
     style="stroke-width:10;stroke-miterlimit:4;stroke-dasharray:none"
     id="SPLINE_29_"
     transform="translate(-653.21382,-387.30889)">
	<path
   class="st0"
   d="m 307.2,444.8 c 0.1,-2.9 -1.7,-6.1 -4.1,-7.6 -2.4,-1.7 -6,-2 -8.6,-0.8 l -13,5.5 c -3.2,1.2 -5.8,5.1 -5.6,8.5 v 12.9 c -0.1,3.2 2.1,6.8 5,8.2 2.8,1.6 7,1.2 9.6,-0.7 l 13,-9.4 c 2.3,-1.6 3.9,-4.7 3.8,-7.5 z"
   id="path121"
   style="fill:none;stroke:#040000;stroke-width:10;stroke-linecap:round;stroke-linejoin:round;stroke-miterlimit:4;stroke-dasharray:none" />
</g><g
     style="stroke-width:10;stroke-miterlimit:4;stroke-dasharray:none"
     id="POLYLINE_11_"
     transform="translate(-653.21382,-387.30889)">
	<polyline
   class="st0"
   points="338.5,421.4 338.5,420.6 338.4,419.8 338.2,418 337.9,416.3 337.4,414.7 336.8,413.1 336,411.5    335.2,410 334.2,408.6 333.1,407.3 332,406 330.7,404.8 329.3,403.8 327.9,402.8 326.4,402 324.8,401.3 323.2,400.7 321.6,400.3    319.9,399.9 318.2,399.8 316.4,399.7 314.7,399.8 313,400 311.3,400.3 309.7,400.8 308.9,401.1 308.5,401.3 308.1,401.4    307.6,401.6 307.2,401.8 306.3,402.2 304.5,402.9 302.8,403.7 301,404.4 299.2,405.1 297.5,405.9 295.7,406.6 293.9,407.4    292.2,408.1 290.4,408.9 288.6,409.6 286.9,410.4 285.1,411.1 283.3,411.8 281.6,412.6 279.8,413.3 278,414.1 276.3,414.8    274.5,415.6 272.7,416.3 271,417.1 269.2,417.8 267.4,418.5 265.6,419.3 263.9,420 262.1,420.8 261.2,421.2 260.8,421.3    260.3,421.5 260,421.7 259.6,421.9 258.8,422.3 257.3,423.1 255.9,424.1 254.5,425.1 253.3,426.3 252.1,427.6 251.1,428.9    250.1,430.4 249.3,431.9 248.6,433.4 248,435.1 247.5,436.7 247.2,438.4 247,440.1 246.9,441 246.9,441.8 246.9,442.2 246.8,442.5    246.7,442.8 246.4,443 246.2,443.2 245.9,443.4 245.6,443.5 245.2,443.5 244.9,443.5 244.6,443.4 244.3,443.2 244,443 243.8,442.8    243.7,442.5 243.6,442.2 243.6,441.8 243.6,440.9 243.6,439.9 243.8,437.9 244.2,435.9 244.8,434 245.4,432.2 246.3,430.4    247.2,428.6 248.3,427 249.5,425.4 250.9,423.9 252.3,422.6 253.9,421.4 255.5,420.2 257.2,419.3 258.1,418.8 258.6,418.6    259,418.4 259.5,418.2 259.9,418 260.8,417.7 262.6,416.9 264.3,416.2 266.1,415.4 267.9,414.7 269.6,413.9 271.4,413.2    273.2,412.5 274.9,411.7 276.7,411 278.5,410.2 280.2,409.5 282,408.7 283.8,408 285.5,407.2 287.3,406.5 289.1,405.8 290.8,405    292.6,404.3 294.4,403.5 296.1,402.8 297.9,402 299.7,401.3 301.4,400.5 303.2,399.8 305,399 305.9,398.7 306.3,398.5 306.8,398.3    307.2,398.1 307.7,397.9 308.6,397.6 310.5,397.1 312.5,396.7 314.4,396.4 316.4,396.3 318.4,396.4 320.4,396.6 322.3,397    324.2,397.5 326.1,398.2 327.9,399 329.6,400 331.3,401 332.9,402.3 334.3,403.6 335.7,405 336.9,406.6 338,408.2 339,410    339.9,411.8 340.6,413.6 341.1,415.5 341.5,417.5 341.8,419.5 341.8,420.5 341.9,421.4 341.8,421.7 341.8,422.1 341.6,422.3    341.4,422.6 341.1,422.8 340.9,423 340.5,423.1 340.2,423.1 339.9,423.1 339.5,423 339.2,422.8 339,422.6 338.8,422.4 338.6,422.1    338.5,421.8 338.5,421.4  "
   id="polyline148"
   style="fill:none;stroke:#040000;stroke-width:10;stroke-linecap:round;stroke-linejoin:round;stroke-miterlimit:4;stroke-dasharray:none" />
</g><g
     style="stroke-width:10;stroke-miterlimit:4;stroke-dasharray:none"
     id="SPLINE_37_"
     transform="translate(-653.21382,-387.30889)">
	<path
   class="st0"
   d="m 350.3,421.4 c 0.2,-10.7 -6.1,-22.3 -15.2,-27.9 -8.8,-6.1 -21.9,-7.3 -31.7,-2.9 l -47.7,20.1 c -11.9,4.4 -21.3,18.6 -20.6,31.2 l 0.2,47.4 c -0.4,11.9 7.7,25 18.5,30 10.4,5.8 25.7,4.5 35.1,-2.7 L 336.7,482 c 8.5,-5.9 14.3,-17.2 14,-27.6 z"
   id="path172"
   style="fill:none;stroke:#040000;stroke-width:10;stroke-linecap:round;stroke-linejoin:round;stroke-miterlimit:4;stroke-dasharray:none" />
</g></g>
</svg>